<?xml version="1.0" encoding="UTF-8" standalone="no"?>
<svg
   xmlns:dc="http://purl.org/dc/elements/1.1/"
   xmlns:cc="http://creativecommons.org/ns#"
   xmlns:rdf="http://www.w3.org/1999/02/22-rdf-syntax-ns#"
   xmlns:svg="http://www.w3.org/2000/svg"
   xmlns="http://www.w3.org/2000/svg"
   xmlns:sodipodi="http://sodipodi.sourceforge.net/DTD/sodipodi-0.dtd"
   xmlns:inkscape="http://www.inkscape.org/namespaces/inkscape"
   width="128"
   height="128"
   viewBox="0 0 33.866666 33.866666"
   version="1.1"
   id="svg8"
   inkscape:version="1.0.1 (3bc2e813f5, 2020-09-07)"
   sodipodi:docname="tox.svg">
  <defs
     id="defs2" />
  <sodipodi:namedview
     id="base"
     pagecolor="#ffffff"
     bordercolor="#666666"
     borderopacity="1.0"
     inkscape:pageopacity="0.0"
     inkscape:pageshadow="2"
     inkscape:zoom="3.959798"
     inkscape:cx="101.23965"
     inkscape:cy="86.651261"
     inkscape:document-units="px"
     inkscape:current-layer="g927"
     inkscape:document-rotation="0"
     showgrid="false"
     units="px"
     inkscape:window-width="1920"
     inkscape:window-height="1017"
     inkscape:window-x="-8"
     inkscape:window-y="-8"
     inkscape:window-maximized="1" />
  <metadata
     id="metadata5">
    <rdf:RDF>
      <cc:Work
         rdf:about="">
        <dc:format>image/svg+xml</dc:format>
        <dc:type
           rdf:resource="http://purl.org/dc/dcmitype/StillImage" />
        <dc:title></dc:title>
      </cc:Work>
    </rdf:RDF>
  </metadata>
  <g
     inkscape:label="Layer 1"
     inkscape:groupmode="layer"
     id="layer1">
    <g
       id="g847"
       transform="matrix(0.62436922,0,0,0.61457913,0.39395033,4.6666218)">
      <g
         transform="matrix(0.10438569,0,0,0.10562385,14.043418,4.5246159)"
         id="g927">
        <path
           d="m -733.62329,72.267944 c 0,203.804876 -165.21649,369.021366 -369.02141,369.021366 -203.8048,0 -369.0213,-165.21649 -369.0213,-369.021366 0,-203.804874 165.2165,-369.021364 369.0213,-369.021364 203.80492,0 369.02141,165.21649 369.02141,369.021364 z"
           fill="#333333"
           id="path923"
           transform="matrix(0.69372682,0,0,0.69372682,884.75558,97.615782)" />
        <path
           id="path925"
           d="M 119.8403,-76.250028 C 31.749434,-77.470742 -53.199421,-20.844038 -86.572258,60.576019 -121.41399,140.55707 -103.38584,239.91767 -42.315207,302.30549 16.442668,365.5248 113.22958,388.59307 194.27535,359.08643 278.27522,330.55493 340.20433,248.037 343.52999,159.29551 349.10411,73.02175 299.10948,-13.218266 221.81146,-51.740089 190.41019,-67.880908 155.13919,-76.303858 119.8403,-76.250028 Z m 14.8519,24.703001 c 25.43438,-2.109952 47.80327,17.746484 51.44386,42.4528001 8.29842,28.4406819 -4.69912,61.2405729 14.2304,86.6255009 22.97902,30.727606 52.06398,61.855776 53.12658,102.539606 -0.77067,15.6386 -6.34474,26.36309 7.15074,36.63841 -0.45728,21.45349 37.18294,45.8317 4.47257,59.80273 -12.18358,5.85708 -32.38973,16.05824 -34.3848,23.08825 -14.57237,18.95132 -49.75537,27.17274 -61.89835,1.34992 -11.0822,-9.3053 -35.87296,-7.46924 -52.42561,-6.74906 -25.198524,-3.45256 -35.199101,27.1057 -61.774489,18.28624 C 37.171978,308.64067 21.989977,297.37581 3.4251441,297.73719 -22.13828,301.09637 -31.141503,277.5538 -21.731348,257.47488 -30.884366,235.88755 -15.157098,220.83046 3.9585887,215.29768 23.724353,198.01898 11.29469,168.45106 26.389755,147.06411 37.000758,121.33757 57.707539,101.86462 70.895042,77.813321 89.133267,42.574391 63.977657,-1.3622152 89.627053,-34.157978 100.40505,-47.45123 118.34805,-51.564148 134.6922,-51.547027 Z m 7.7455,51.06029945 C 123.94485,-3.6216389 118.83532,37.074214 132.6994,26.547472 c 0.8236,-25.90067077 27.23118,-3.89349 13.3853,10.0767 20.79898,11.525739 19.04018,-33.2043311 1.20461,-36.35949956 l -4.66411,-0.75139999 h -0.1881 z M 96.754089,3.1228724 C 78.707374,3.8327373 82.895645,45.787309 95.325289,36.887772 83.451375,27.770221 100.51046,4.1734696 103.59719,26.811072 116.11272,40.249342 111.87126,0.21636663 96.754089,3.1228724 Z M 117.88509,29.028972 C 102.65276,31.354833 68.324956,53.580021 95.212389,66.779482 110.203,86.923501 132.80406,76.15897 149.95828,65.88424 177.63912,49.607754 141.76624,36.133809 126.37339,30.48161 c -1.75023,-3.139269 -6.50711,0.587142 -8.4883,-1.452638 z m 35.71961,21.1687 C 144.18469,59.771073 123.48732,72.01119 107.20057,66.98539 95.465187,65.530568 78.361383,41.261271 97.881789,58.619972 116.37363,75.907819 136.0438,56.969198 153.6047,50.197672 Z m 7.4448,10.0015 c -15.52834,11.431011 -38.66547,30.342134 -58.12901,16.43101 -8.719315,-9.539284 -16.388506,-13.186121 -15.340631,2.835808 -7.477653,39.04889 -36.257803,71.63093 -36.54697,112.36959 -16.731867,-22.49593 -3.423543,-50.75381 8.230588,-72.15584 -6.248146,4.67336 -19.279451,31.25722 -20.818161,46.84576 -5.146855,23.28295 14.504465,39.1843 32.230378,49.55678 12.572338,6.61797 33.067176,36.08089 7.767395,38.73271 8.665448,16.6527 26.621661,25.30803 45.087161,25.13094 17.17304,0.20835 33.9506,-6.1908 47.82155,-16.06934 9.66985,-21.17526 -0.4681,-49.41195 17.99276,-66.48418 7.52336,-11.76555 19.93156,-22.27125 35.55974,-10.80174 12.92966,-0.47627 17.68141,31.54732 16.42317,8.18261 -9.00692,-12.48264 -27.31907,-13.00307 -20.35865,-31.80744 -2.0972,-19.66943 -12.51926,-40.18531 -27.83531,-51.80164 14.76319,17.33435 28.76015,41.96344 19.57789,65.63148 -16.92536,-6.85202 -14.13125,-38.8831 -28.19904,-54.10176 -9.49369,-20.1324 -17.69212,-40.976721 -23.46286,-62.494748 z m 45.4204,125.432408 c -24.23927,9.92201 8.65215,44.52099 20.9806,17.5591 4.15937,-11.50252 -12.66582,-16.32251 -20.9806,-17.5591 z m -11.7311,14.1751 c -18.4617,13.08645 -9.46383,38.80709 -16.32038,57.4943 -5.91669,17.41373 -15.13327,45.20727 8.2513,54.05559 24.58857,7.84107 39.27434,-17.24705 56.50838,-29.11466 16.90827,-6.89081 45.15632,-20.56177 21.4964,-39.30762 -2.92395,-25.28772 -22.98042,-46.44007 -45.03628,-22.88024 -14.17864,6.3577 -24.70112,-7.18402 -24.89942,-20.24737 z m -166.754511,0.7144 c -15.955809,7.1534 -24.1482976,26.41863 -43.196027,30.40418 -5.521319,16.61045 -1.195443,36.46685 -4.255673,53.89533 14.87133,12.95783 38.524609,4.86129 55.1964,15.7917 17.176529,10.65161 52.035104,13.95145 54.2939,-13.0477 C 87.670621,264.66555 64.048193,251.85385 56.939912,230.66005 50.40059,218.85059 43.637721,201.62202 27.984289,200.52108 Z"
           style="fill:#f2f2f2" />
      </g>
    </g>
  </g>
</svg>
