<svg height="128" viewBox="0 0 33.866666 33.866666" width="128" xmlns="http://www.w3.org/2000/svg"><g transform="matrix(.06517521184 0 0 .06491421384 9.16222794279 7.44735656486)"><path d="m-733.62329 72.267944c0 203.804876-165.21649 369.021366-369.02141 369.021366-203.8048 0-369.0213-165.21649-369.0213-369.021366 0-203.804874 165.2165-369.021364 369.0213-369.021364 203.80492 0 369.02141 165.21649 369.02141 369.021364z" fill="#333" transform="matrix(.69372682 0 0 .69372682 884.75558 97.615782)"/><path d="m119.8403-76.250028c-88.090866-1.220714-173.039721 55.40599-206.412558 136.826047-34.841732 79.981051-16.813582 179.341651 44.257051 241.729471 58.757875 63.21931 155.544787 86.28758 236.590557 56.78094 83.99987-28.5315 145.92898-111.04943 149.25464-199.79092 5.57412-86.27376-44.42051-172.513776-121.71853-211.035599-31.40127-16.140819-66.67227-24.563769-101.97116-24.509939zm14.8519 24.703001c25.43438-2.109952 47.80327 17.746484 51.44386 42.4528001 8.29842 28.4406819-4.69912 61.2405729 14.2304 86.6255009 22.97902 30.727606 52.06398 61.855776 53.12658 102.539606-.77067 15.6386-6.34474 26.36309 7.15074 36.63841-.45728 21.45349 37.18294 45.8317 4.47257 59.80273-12.18358 5.85708-32.38973 16.05824-34.3848 23.08825-14.57237 18.95132-49.75537 27.17274-61.89835 1.34992-11.0822-9.3053-35.87296-7.46924-52.42561-6.74906-25.198524-3.45256-35.199101 27.1057-61.774489 18.28624-17.461123-3.8467-32.643124-15.11156-51.2079569-14.75018-25.5634241 3.35918-34.5666471-20.18339-25.1564921-40.26231-9.153018-21.58733 6.57425-36.64442 25.6899367-42.1772 19.7657643-17.2787 7.3361013-46.84662 22.4311663-68.23357 10.611003-25.72654 31.317784-45.19949 44.505287-69.250789 18.238225-35.23893-6.917385-79.1755362 18.732011-111.971299 10.777997-13.293252 28.720997-17.40617 45.065147-17.389049zm7.7455 51.06029945c-18.49285-3.13491135-23.60238 37.56094155-9.7383 27.03419955.8236-25.90067077 27.23118-3.89349 13.3853 10.0767 20.79898 11.525739 19.04018-33.2043311 1.20461-36.35949956l-4.66411-.75139999h-.1881zm-45.683611 3.60959995c-18.046715.7098649-13.858444 42.6644366-1.4288 33.7648996-11.873914-9.117551 5.185171-32.7143024 8.271901-10.0767 12.51553 13.43827 8.27407-26.59470537-6.843101-23.6881996zm21.131001 25.9060996c-15.23233 2.325861-49.560134 24.551049-22.672701 37.75051 14.990611 20.144019 37.591671 9.379488 54.745891-.895242 27.68084-16.276486-8.19204-29.750431-23.58489-35.40263-1.75023-3.139269-6.50711.587142-8.4883-1.452638zm35.71961 21.1687c-9.42001 9.573401-30.11738 21.813518-46.40413 16.787718-11.735383-1.454822-28.839187-25.724119-9.318781-8.365418 18.491841 17.287847 38.162011-1.650774 55.722911-8.4223zm7.4448 10.0015c-15.52834 11.431011-38.66547 30.342134-58.12901 16.43101-8.719315-9.539284-16.388506-13.186121-15.340631 2.835808-7.477653 39.04889-36.257803 71.63093-36.54697 112.36959-16.731867-22.49593-3.423543-50.75381 8.230588-72.15584-6.248146 4.67336-19.279451 31.25722-20.818161 46.84576-5.146855 23.28295 14.504465 39.1843 32.230378 49.55678 12.572338 6.61797 33.067176 36.08089 7.767395 38.73271 8.665448 16.6527 26.621661 25.30803 45.087161 25.13094 17.17304.20835 33.9506-6.1908 47.82155-16.06934 9.66985-21.17526-.4681-49.41195 17.99276-66.48418 7.52336-11.76555 19.93156-22.27125 35.55974-10.80174 12.92966-.47627 17.68141 31.54732 16.42317 8.18261-9.00692-12.48264-27.31907-13.00307-20.35865-31.80744-2.0972-19.66943-12.51926-40.18531-27.83531-51.80164 14.76319 17.33435 28.76015 41.96344 19.57789 65.63148-16.92536-6.85202-14.13125-38.8831-28.19904-54.10176-9.49369-20.1324-17.69212-40.976721-23.46286-62.494748zm45.4204 125.432408c-24.23927 9.92201 8.65215 44.52099 20.9806 17.5591 4.15937-11.50252-12.66582-16.32251-20.9806-17.5591zm-11.7311 14.1751c-18.4617 13.08645-9.46383 38.80709-16.32038 57.4943-5.91669 17.41373-15.13327 45.20727 8.2513 54.05559 24.58857 7.84107 39.27434-17.24705 56.50838-29.11466 16.90827-6.89081 45.15632-20.56177 21.4964-39.30762-2.92395-25.28772-22.98042-46.44007-45.03628-22.88024-14.17864 6.3577-24.70112-7.18402-24.89942-20.24737zm-166.754511.7144c-15.955809 7.1534-24.1482976 26.41863-43.196027 30.40418-5.521319 16.61045-1.195443 36.46685-4.255673 53.89533 14.87133 12.95783 38.524609 4.86129 55.1964 15.7917 17.176529 10.65161 52.035104 13.95145 54.2939-13.0477-2.352268-22.89904-25.974696-35.71074-33.082977-56.90454-6.539322-11.80946-13.302191-29.03803-28.955623-30.13897z" fill="#f2f2f2"/></g></svg>