<svg id="icon" xmlns="http://www.w3.org/2000/svg" viewBox="0 0 288 300">
        <g fill-rule="evenodd" stroke-linejoin="round" class="nc-icon-wrapper">
            <path
                d="M61 15.9c-6.3 1-13.3 2.4-15.4 3.1-10.6 3.5-22 12.7-29.2 23.6C12.7 48.1 9 58.9 9 64c0 1.4.6-.6 0 0-1.6 1.6-3.6 140.4-2.1 157.5.9 10.9 3 22.3 5.2 28 3.7 9.5 15.3 22.4 24.7 27.5 15.2 8.2 24.3 9 107.5 9 68.3 0 76.5-.4 89.2-3.5 16-4 29.5-15.1 36.8-30.2 6.7-14.1 6.8-16.2 6.4-107.2-.3-88.3-.1-85-7.1-98.9-5.9-11.7-18.8-23-31.4-27.3-13-4.5-20.4-4.9-95.2-4.8-61.7.1-71.9.3-82 1.8zm127 47.5c12.7 4.2 20.4 9 29.5 18.1C230.9 94.9 237 109.7 237 129c0 22.8-10.1 42.5-28.4 55.4-14.5 10.2-23.4 12.5-51.3 13.3l-20.2.6-.3 14.8c-.3 16.4-.6 17.2-8.2 23.3l-3.8 3.1-33.8.6-.2-33.8-.3-33.8-6.3.1c-7.1.1-7.4-.3-6.9-8.6l.2-4.5h60l.2 5c.1 2.7.2 5.3.2 5.8.1.4 4-2 8.9-5.4 4.8-3.3 12.3-8.5 16.7-11.5 4.4-3 12.3-8.4 17.5-12 5.2-3.6 11.6-8 14.2-9.7 2.6-1.8 4.8-3.5 4.8-3.9 0-.7-1.7-1.8-30-20.3-23.1-15.1-23-15-27.7-17.9L138 87v10.9l-29.3.3c-16.2.2-30.1.1-31.1 0-1.5-.3-1.6-1.3-1.2-6.5.2-3.4.5-6.3.5-6.5.1-.1 3.3-.2 7.1-.2h7V59.9l44.3.3 44.2.4 8.5 2.8zM68.5 85.5v13h-14l-.3-5.4c-.5-8-.3-8.2 7.5-7.9l6.8.3zM59 110v13.1l-6.7-.3-6.8-.3v-6.3l-.1-6.2H59zm78.5.5v12l-35.2.3-35.3.2v-13l35.3.2 35.2.3zM78 134v14.1l-6.7-.3-6.8-.3-.3-5.4c-.5-7.9-.2-8.1 7.3-8.1H78zm59.8 1c.2 0 .2 2.8 0 6.2l-.3 6.3h-51l-.3-5.4c-.5-9-2.5-8.4 26.1-7.7 13.8.3 25.3.6 25.5.6zm-68 30.1c.4 7.1-.7 8.1-8.5 7.7l-5.8-.3-.6-13.6 14.6.6.3 5.6z"
                fill="url(#_Linear1)" fill-rule="nonzero" />
            <defs>
                <linearGradient id="_Linear1" x1="0" y1="0" x2="1" y2="0" gradientUnits="userSpaceOnUse"
                    gradientTransform="matrix(270.462 0 0 -271.913 6.37 150.044)">
                    <stop offset="0" stop-color="#4179ff" stop-opacity="1" />
                    <stop offset=".56" stop-color="#342cfe" stop-opacity="1" />
                    <stop offset="1" stop-color="#2e0bfe" stop-opacity="1" />
                </linearGradient>
            </defs>
        </g>
</svg>
