<svg id="icon" xmlns="http://www.w3.org/2000/svg" viewBox="0 0 24 24">
        <g fill-rule="evenodd" stroke-linejoin="round" class="nc-icon-wrapper">
            <path
                d="M11.969 23.973c-6.6 0-12-5.4-12-12 0-5.128 3.26-9.532 7.809-11.241a11.888 11.888 0 0 1 4.191-.759c6.6 0 12 5.4 12 12s-5.4 12-12 12M8.895 5.778v12.391l10.754-6.196L8.895 5.778zm1.049 1.769l7.65 4.426-7.65 4.426V7.547zm-3.526-.419v9.689l8.401-4.844-8.401-4.845zm1.051 1.8l5.311 3.045-5.311 3.061V8.912"
                fill="#b60c4b" fill-rule="nonzero" />
            <path fill="#fff" d="M8.891 7.973h1.051v7.487H8.891z" />
        </g>
</svg>
