<svg id="icon" xmlns="http://www.w3.org/2000/svg"  viewBox="0 0 49 49">
        <g fill-rule="evenodd" stroke-linejoin="round" class="nc-icon-wrapper">
            <g id="g26">
                <g id="g4">
                    <path id="path2"
                        d="M15.89 1.868c-6.8 2.2-13.9 8.4-13 15.4 0 8 8 14.2 15.9 16.8-6.2-7.1-10.6-15.9-6.7-25.6 1.8-4.1 3.8-6.6 3.8-6.6z"
                        fill="#6cb94f" fill-rule="nonzero" />
                </g>
                <g id="g8">
                    <path id="path6"
                        d="M1.19 19.168c-2.7 7-.1 15.8 5.2 19.4 7.1 5.3 16.8 2.7 23.9-3.5-9.7 1.8-20.3 0-25.7-8.7-2.4-4.1-3.4-7.2-3.4-7.2z"
                        fill="#158e9b" fill-rule="nonzero" />
                </g>
                <g id="g12">
                    <path id="path10"
                        d="M7.59 41.268c4.9 6 13.8 8.5 20.9 5.8 4.8-1.9 8.4-7.1 9.2-13 .5-3-.1-5.5-.5-8.5-3.5 9.7-11.4 16.5-21.6 17-4.7-.3-8-1.3-8-1.3z"
                        fill="#2fb7e9" fill-rule="nonzero" />
                </g>
                <g id="g16">
                    <path id="path14"
                        d="M31.49 47.468c7.7-1.9 15.6-9 15.6-16.9 0-5.3-5.5-14.8-15.9-16.8 7.1 7.1 11.5 18.6 5.4 27.5-2.7 3.9-5.1 6.2-5.1 6.2z"
                        fill="#eb58a0" fill-rule="nonzero" />
                </g>
                <g id="g20">
                    <path id="path18"
                        d="M48.59 28.368c1.1-7.6-.7-17.3-7.7-20.9-4.4-2.7-17.3-.1-21.2 7.1 8.9-3.5 20.3-2.7 25.7 6.8 2.3 3.9 3.2 7 3.2 7z"
                        fill="#ea545e" fill-rule="nonzero" />
                </g>
                <g id="g24">
                    <path id="path22"
                        d="M39.39 4.968c-5.6-4.5-14.4-7.1-20.6-2.7-7.1 4.4-8.8 14.1-4.4 22.1.9-9.7 8-17.7 17.4-19.4 4.4-.5 7.6 0 7.6 0z"
                        fill="#ef7543" fill-rule="nonzero" />
                </g>
            </g>
        </g>
</svg>
