<?xml version="1.0" encoding="UTF-8" standalone="no"?>
<svg
   xmlns:dc="http://purl.org/dc/elements/1.1/"
   xmlns:cc="http://creativecommons.org/ns#"
   xmlns:rdf="http://www.w3.org/1999/02/22-rdf-syntax-ns#"
   xmlns:svg="http://www.w3.org/2000/svg"
   xmlns="http://www.w3.org/2000/svg"
   xmlns:xlink="http://www.w3.org/1999/xlink"
   xmlns:sodipodi="http://sodipodi.sourceforge.net/DTD/sodipodi-0.dtd"
   xmlns:inkscape="http://www.inkscape.org/namespaces/inkscape"
   width="128"
   height="128"
   viewBox="0 0 33.866666 33.866666"
   version="1.1"
   id="svg8"
   inkscape:version="1.0.1 (3bc2e813f5, 2020-09-07)"
   sodipodi:docname="composer.svg">
  <defs
     id="defs2">
    <linearGradient
       gradientTransform="matrix(0.4345,-0.9318,-0.9318,-0.4345,6223.4761,-5052.7427)"
       y2="2820.8604"
       x2="-6841.793"
       y1="2820.8604"
       x1="-8535.5879"
       gradientUnits="userSpaceOnUse"
       id="SVGID_4_">
      <stop
         id="stop3219"
         style="stop-color:#9C2063"
         offset="0.3233" />
      <stop
         id="stop3221"
         style="stop-color:#C82037"
         offset="0.6302" />
      <stop
         id="stop3223"
         style="stop-color:#CC2135"
         offset="0.7514" />
      <stop
         id="stop3225"
         style="stop-color:#E87726"
         offset="1" />
    </linearGradient>
    <linearGradient
       gradientTransform="matrix(0.4345,-0.9318,-0.9318,-0.4345,6223.4761,-5052.7427)"
       y2="2654.2649"
       x2="-6946.8647"
       y1="2654.2649"
       x1="-8640.6592"
       gradientUnits="userSpaceOnUse"
       id="SVGID_7_">
      <stop
         id="stop3252"
         style="stop-color:#9C2063"
         offset="0.3233" />
      <stop
         id="stop3254"
         style="stop-color:#C82037"
         offset="0.6302" />
      <stop
         id="stop3256"
         style="stop-color:#CC2135"
         offset="0.7514" />
      <stop
         id="stop3258"
         style="stop-color:#E87726"
         offset="1" />
    </linearGradient>
    <linearGradient
       inkscape:collect="always"
       xlink:href="#SVGID_4_"
       id="linearGradient2116"
       gradientUnits="userSpaceOnUse"
       gradientTransform="matrix(0.4345,-0.9318,-0.9318,-0.4345,6223.4761,-5052.7427)"
       x1="-8535.5879"
       y1="2820.8604"
       x2="-6841.793"
       y2="2820.8604" />
    <linearGradient
       inkscape:collect="always"
       xlink:href="#SVGID_7_"
       id="linearGradient2122"
       gradientUnits="userSpaceOnUse"
       gradientTransform="matrix(0.4345,-0.9318,-0.9318,-0.4345,6223.4761,-5052.7427)"
       x1="-8640.6592"
       y1="2654.2649"
       x2="-6946.8647"
       y2="2654.2649" />
  </defs>
  <sodipodi:namedview
     id="base"
     pagecolor="#ffffff"
     bordercolor="#666666"
     borderopacity="1.0"
     inkscape:pageopacity="0.0"
     inkscape:pageshadow="2"
     inkscape:zoom="3.6203867"
     inkscape:cx="51.390908"
     inkscape:cy="98.938049"
     inkscape:document-units="px"
     inkscape:current-layer="layer1"
     inkscape:document-rotation="0"
     showgrid="false"
     units="px"
     inkscape:window-width="1920"
     inkscape:window-height="1017"
     inkscape:window-x="-8"
     inkscape:window-y="-8"
     inkscape:window-maximized="1" />
  <metadata
     id="metadata5">
    <rdf:RDF>
      <cc:Work
         rdf:about="">
        <dc:format>image/svg+xml</dc:format>
        <dc:type
           rdf:resource="http://purl.org/dc/dcmitype/StillImage" />
        <dc:title></dc:title>
      </cc:Work>
    </rdf:RDF>
  </metadata>
  <g
     inkscape:label="Layer 1"
     inkscape:groupmode="layer"
     id="layer1">
    <path
       id="path3270"
       style="fill:#333333;stroke-width:0.154394"
       d="M 20.876135,0.60598008 C 18.726064,1.2091745 21.266522,3.6245143 21.675276,3.835681 21.08317,3.2417321 18.424749,2.4617643 19.47429,3.9962777 c 0.572649,0.6680725 2.821455,1.74934 2.050409,2.2842332 -0.83589,-0.243303 -2.989259,1.4069352 -1.141278,0.488738 1.123615,-0.2960458 2.489937,0.3785257 3.434133,-0.5246487 -1.716097,0.3174569 -3.777408,-1.7383987 -3.987006,-2.8476047 1.009158,-0.2122018 2.804332,2.0773759 3.096166,1.0501481 -0.722136,-0.9648634 -2.613264,-1.5757213 -2.294477,-3.002827 0.621424,0.1956273 1.563726,0.8248525 0.584119,-0.039508 0.546848,-0.98891305 2.2774,0.6314246 3.143049,0.8992556 0.286379,0.6221193 2.246328,1.8935192 1.60731,0.5516416 -0.742018,-0.7278999 -0.204253,-2.68329241 0.646746,-1.0787656 1.375112,1.8493736 2.348591,4.1838186 1.973391,6.5232434 1.533168,1.3262853 0.111103,4.5185124 -1.803258,2.8902884 C 25.528811,9.7504956 24.002614,8.7708038 22.197424,8.2389395 21.557235,7.8127843 19.09381,7.2303142 20.923501,7.9231209 c 1.618416,0.733759 3.273587,1.4530649 4.743682,2.4519531 1.011306,1.11398 -0.667021,1.839483 -1.189063,2.052089 -0.184115,1.373701 2.805312,3.2435 1.41776,4.02071 -1.125103,-1.562978 -2.635508,-2.693366 -4.614263,-2.651922 -0.956139,-0.361061 -2.756276,-1.59656 -3.172316,-1.217472 1.872677,0.366261 2.91316,2.52725 2.42728,4.29211 0.807549,-0.76194 -0.07588,-3.855269 2.188652,-2.58449 0.706589,0.188514 2.745463,1.444057 1.782159,1.929357 -1.560681,-0.5541 1.073696,0.718991 1.084465,1.438402 0.496472,0.665773 1.037628,1.963227 0.122974,2.338432 1.277637,0.625098 1.481983,-0.65068 0.838564,-1.497843 -0.509825,-1.380014 -0.0061,-3.294016 0.658284,-4.196812 -1.548837,0.973491 -3.143312,-1.944924 -0.983915,-2.183198 1.9326,-0.321312 3.807978,-0.987156 5.772543,-1.164269 1.008136,1.252587 -1.873456,2.570693 -0.05779,3.647155 0.512692,0.831236 -0.941194,1.468988 -0.853763,1.177174 1.839072,1.229118 -0.268488,3.265274 -0.751778,4.697678 -0.791436,2.054248 -1.055394,4.304754 -2.151515,6.240411 -1.477895,0.701521 -3.153105,2.041166 -4.848461,1.237914 -0.408993,-1.018596 -1.041604,-2.019491 -1.769509,-0.542271 -1.490598,1.1975 -3.559862,0.474838 -5.208611,1.215358 1.811107,0.574096 -1.301146,1.496646 -2.036735,1.35776 C 13.877121,29.388372 13.93739,28.345649 12.826425,28.898886 11.073009,29.551844 10.466003,27.24671 9.3562388,26.389449 7.7672205,25.063004 5.7297393,24.215547 4.4831229,22.484798 4.2846717,20.521971 4.7549702,18.539712 4.3492797,16.584109 c -0.560586,-1.800941 1.5909251,-1.955446 2.786938,-1.551082 1.4282635,0.292963 2.6239196,1.947089 1.7356319,3.310615 -0.176298,0.912671 -1.913467,2.951066 -0.155886,2.325357 -0.011515,0.999016 0.6899578,3.443994 1.8225154,2.248537 -0.5502951,-0.988643 -0.6076315,-2.286074 0.889511,-2.138745 1.800201,-0.55093 -0.714639,-0.151373 -1.219543,0.255242 -1.6296621,-0.09271 1.071936,-1.511832 1.812905,-1.43819 1.875957,-0.425408 3.981398,-0.426865 5.556042,-1.667896 -1.036463,0.08518 -2.789754,0.723762 -4.148177,0.777904 -1.509129,0.09541 -2.973864,0.619821 -4.438348,0.807007 -0.2568112,-1.173012 1.587826,-2.175486 2.446573,-2.934513 1.77936,-1.156109 3.94186,-1.633685 6.047576,-1.550288 -1.817076,-0.467215 -3.710722,0.143779 -5.368575,0.852263 -0.421347,0.472076 -2.516709,1.657821 -1.676864,0.21695 1.323501,-1.905659 3.376099,-3.343627 5.696453,-3.681978 0.708622,-0.276929 -1.474568,-0.01543 -1.874003,0.230003 C 12.44121,13.296243 10.946584,14.667726 9.9019417,16.2707 8.2532405,16.098043 11.580775,14.317711 10.071623,13.393331 9.05762,12.895779 8.1241502,12.002496 9.2774461,10.98039 11.026779,9.9025136 11.850379,8.0369531 13.34382,6.6968955 14.265348,5.7055596 13.620404,3.9688211 15.443271,3.8500983 16.330306,3.7331962 17.102828,2.5352314 15.734457,3.362054 14.056648,3.7054918 12.64956,5.516024 10.990006,5.3092866 9.968779,4.1661302 11.837214,3.319283 11.942619,2.5648279 11.19074,2.5257757 11.847621,3.4580662 10.992325,3.4945551 9.9551245,3.9753054 10.664747,5.6193017 10.401588,5.8877115 8.6194614,6.2902775 7.1541822,8.0195747 5.2394599,8.4379696 3.6900273,8.0176721 3.1473911,5.5112169 3.3581919,4.1207601 4.307479,4.1272953 4.948554,7.3495149 5.7563226,5.1257776 6.3198767,3.6751491 7.9198324,3.3397826 8.5983368,4.8491378 9.61951,5.1964023 7.2830543,3.8521317 8.8034972,3.5690858 10.78228,2.9887688 7.8204046,3.2375952 7.171529,3.5769743 5.8704269,3.8769021 4.9210839,6.386655 4.0332754,4.274581 3.6795958,3.2102813 2.4684277,3.4083923 2.9929116,4.6059408 c 0.5995919,1.9592258 0.8189439,4.1127964 1.9699091,5.8263132 0.4431168,1.168789 -0.8522321,1.612465 -1.6303696,1.509194 -1.4527381,1.527429 0.4471854,2.982667 0.5481473,4.485325 0.34677,1.9139 -3.392e-4,3.862962 0.2027924,5.773561 0.3430522,1.422588 1.8465113,1.978267 2.8575093,2.869016 1.0823911,0.698851 2.3199204,1.304236 3.0044361,2.44968 -0.2287112,1.630888 -3.3953886,-0.641953 -3.3146755,0.8128 0.9500651,0.507165 0.7487426,0.03465 0.600452,-0.153541 1.9185282,-0.176436 3.7001823,0.696753 5.5208573,1.141634 -0.406486,0.718106 -2.544276,-0.0037 -3.5716546,0.184171 -0.7059405,-0.05343 -3.5422859,0.06957 -1.5419884,0.190787 2.980407,0.277832 5.99404,0.453487 8.898645,1.228357 0.941829,0.631637 -1.026939,3.290821 0.970842,2.069398 3.484802,-1.981345 7.31726,-3.261679 11.19865,-4.193303 0.786831,-0.230527 1.71135,-1.681052 0.202697,-0.934876 -1.877537,0.517795 -3.673161,1.297651 -5.56433,1.769718 0.78565,-1.920824 3.401317,-1.565166 4.91318,-2.572574 0.884171,0.282827 2.71637,-0.5789 1.009553,-0.932219 -0.284333,-1.479946 0.967059,-2.879952 1.09473,-4.399957 0.504201,-1.717129 1.399949,-3.288309 2.014682,-4.956144 -0.07734,-1.715739 -1.138106,-3.423272 0.192281,-4.92781 0.348928,-1.430143 -1.156386,-1.734632 -2.057546,-1.119698 C 28.575166,10.051216 29.21194,7.5604215 28.77196,5.9821971 28.374159,4.0767585 27.459185,2.2591164 26.061344,0.89187498 24.309287,0.11993076 26.5844,3.8405734 24.840317,2.42087 23.60973,1.6464238 22.330628,0.86219911 20.876135,0.60598008 Z m 1.339019,1.56802542 c 0.27472,0.6607502 0.830734,0.2803477 0,0 z m 0.662453,0.4398344 c 0.27355,0.6606623 0.830692,0.2806305 0,0 z M 13.483156,5.3134822 C 13.039312,7.7682327 10.355848,8.7341847 9.2132026,10.77919 8.6900412,12.410126 6.3276978,13.660736 5.3504086,11.750939 5.0422798,10.277564 4.8954408,8.2445504 6.8436169,7.9526189 8.7257839,7.3501908 10.364913,6.1750748 12.285927,5.6472829 12.680213,5.5197385 13.079397,5.4069884 13.483156,5.3134822 Z M 7.2696676,5.4724917 c -0.1112111,0.7138678 0.751272,-0.035753 0,0 z M 3.5187137,12.098305 c 2.1591489,0.390251 4.3033056,0.872704 6.4077573,1.49577 0.579757,2.126014 -2.3544842,1.735142 -3.5607018,1.273215 -1.356819,0.01183 -4.0536916,-0.282118 -3.0427444,-2.294418 0.010343,-0.163563 -0.015602,-0.414664 0.1956889,-0.474567 z m 19.4168463,3.61457 c -0.949335,-0.262937 0.481565,0.393624 0,0 z m -2.538067,1.708733 c -0.24929,1.444526 -3.000736,1.583415 -2.048231,2.932942 0.947705,-1.222686 2.777681,-1.524447 3.646055,-0.03281 1.154579,0.899517 3.203337,1.388374 4.060456,1.994534 -0.664675,0.931657 -2.297475,1.928988 -0.968185,3.088402 0.203918,-0.634684 0.578399,-2.163101 1.127553,-0.860311 -0.130612,-1.238637 0.31475,-2.793972 1.347437,-2.352006 -0.771345,-0.473135 -1.304271,-1.664547 0.138067,-1.414486 1.194529,-0.186347 -1.247207,-0.64037 -1.768238,-0.282487 -1.701874,0.143582 -3.686838,-0.02792 -4.998882,-1.240112 -0.492933,-0.484212 -0.631272,-1.168684 -0.536032,-1.833662 z m 1.90928,1.080908 c 0.388317,0.762972 3.335901,1.606086 1.315596,0.69785 -0.45335,-0.202775 -0.899464,-0.42556 -1.315596,-0.69785 z m -6.001245,1.627071 c -0.949297,-0.262644 0.481165,0.39341 0,0 z m -1.015039,0.122656 c -1.117552,0.02052 0.78581,0.149806 0,0 z m -1.49192,0.111139 c -1.130237,0.101426 1.20582,0.104004 0,0 z m 3.957359,0.671898 c -0.95327,1.258553 -2.881261,-0.158432 -3.8629,0.588167 1.892615,-0.410184 3.729622,0.908051 3.479664,2.805586 0.619345,0.533012 2.133429,-0.64728 0.605697,-0.229284 -1.104693,-0.549271 -0.806378,-2.339193 -0.222461,-3.164469 z m 0.44565,0.272406 c 0.29639,1.206272 2.957635,2.025608 2.894104,1.716546 -0.667508,0.05479 -1.751564,-0.886056 -0.416315,-0.664037 1.44205,-0.440142 -1.444058,-0.238947 -1.848042,-0.596477 -0.238712,-0.105215 -0.458923,-0.257559 -0.629747,-0.456032 z m -4.626209,0.939138 c 0.514823,1.042022 3.612592,-0.130817 1.339928,0.02947 -0.446621,-0.0107 -0.893181,-0.02501 -1.339928,-0.02947 z m -2.191871,1.390978 c 0.899642,0.373693 -0.209036,3.17884 1.143726,1.76247 1.735953,-0.918617 2.234897,2.495593 1.652986,2.512833 0.09032,-0.994783 1.609517,-1.018495 1.878655,-0.104418 -1.263882,-1.576321 -2.900083,-2.823146 -4.475226,-4.063514 z m 12.542028,0.642693 c -0.809656,0.09875 -1.049781,1.518121 0,0 z m -4.178899,0.592066 c -0.657037,0.312878 0.597409,0.311439 0,0 z m -2.638392,0.01519 c -1.668288,0.648907 3.347602,0.291117 0.896456,0.201246 -0.297394,0.01145 -0.679854,0.05587 -0.896456,-0.201246 z m 1.363267,0.825098 c -0.149499,0.429009 0.972364,0.06013 0.208383,0.02263 z m -0.337568,0.107832 c -0.849868,-0.746019 -2.151238,1.86988 -0.883169,0.396028 0.267759,-0.183952 0.572749,-0.305677 0.883169,-0.396028 z m 4.28931,1.380337 c 1.806481,1.342073 -0.90339,3.814061 -2.141643,1.948744 -1.006871,-0.767157 2.8556,0.341406 1.046679,-0.324993 -1.774312,-0.567802 0.743544,-1.081932 1.094964,-1.623751 z m 7.467808,1.304965 c -0.949481,-0.262712 0.481296,0.393481 0,0 z m -10.670288,0.671556 c 1.939669,-0.09813 0.650353,2.127388 -0.718137,1.578539 -1.551291,0.101357 -2.460183,-1.625886 -0.35024,-1.459825 0.356288,-0.03786 0.714345,-0.06175 1.068377,-0.118714 z m 2.151811,0.77332 c 1.147874,0.985874 -2.030267,1.840569 -2.157259,1.577015 0.573679,-0.692359 1.312291,-1.259092 2.157259,-1.577015 z" />
  </g>
</svg>
