<svg height="128" viewBox="0 0 33.866666 33.866666" width="128" xmlns="http://www.w3.org/2000/svg"><path d="m20.876135.60598008c-2.150071.60319442.390387 3.01853422.799141 3.22970092-.592106-.5939489-3.250527-1.3739167-2.200986.1605967.572649.6680725 2.821455 1.74934 2.050409 2.2842332-.83589-.243303-2.989259 1.4069352-1.141278.488738 1.123615-.2960458 2.489937.3785257 3.434133-.5246487-1.716097.3174569-3.777408-1.7383987-3.987006-2.8476047 1.009158-.2122018 2.804332 2.0773759 3.096166 1.0501481-.722136-.9648634-2.613264-1.5757213-2.294477-3.002827.621424.1956273 1.563726.8248525.584119-.039508.546848-.98891305 2.2774.6314246 3.143049.8992556.286379.6221193 2.246328 1.8935192 1.60731.5516416-.742018-.7278999-.204253-2.68329241.646746-1.0787656 1.375112 1.8493736 2.348591 4.1838186 1.973391 6.5232434 1.533168 1.3262853.111103 4.5185124-1.803258 2.8902884-1.254783-1.4399764-2.78098-2.4196682-4.58617-2.9515325-.640189-.4261552-3.103614-1.0086253-1.273923-.3158186 1.618416.733759 3.273587 1.4530649 4.743682 2.4519531 1.011306 1.11398-.667021 1.839483-1.189063 2.052089-.184115 1.373701 2.805312 3.2435 1.41776 4.02071-1.125103-1.562978-2.635508-2.693366-4.614263-2.651922-.956139-.361061-2.756276-1.59656-3.172316-1.217472 1.872677.366261 2.91316 2.52725 2.42728 4.29211.807549-.76194-.07588-3.855269 2.188652-2.58449.706589.188514 2.745463 1.444057 1.782159 1.929357-1.560681-.5541 1.073696.718991 1.084465 1.438402.496472.665773 1.037628 1.963227.122974 2.338432 1.277637.625098 1.481983-.65068.838564-1.497843-.509825-1.380014-.0061-3.294016.658284-4.196812-1.548837.973491-3.143312-1.944924-.983915-2.183198 1.9326-.321312 3.807978-.987156 5.772543-1.164269 1.008136 1.252587-1.873456 2.570693-.05779 3.647155.512692.831236-.941194 1.468988-.853763 1.177174 1.839072 1.229118-.268488 3.265274-.751778 4.697678-.791436 2.054248-1.055394 4.304754-2.151515 6.240411-1.477895.701521-3.153105 2.041166-4.848461 1.237914-.408993-1.018596-1.041604-2.019491-1.769509-.542271-1.490598 1.1975-3.559862.474838-5.208611 1.215358 1.811107.574096-1.301146 1.496646-2.036735 1.35776-.445024-.592975-.384755-1.635698-1.49572-1.082461-1.753416.652958-2.360422-1.652176-3.4701862-2.509437-1.5890183-1.326445-3.6264995-2.173902-4.8731159-3.904651-.1984512-1.962827.2718473-3.945086-.1338432-5.900689-.560586-1.800941 1.5909251-1.955446 2.786938-1.551082 1.4282635.292963 2.6239196 1.947089 1.7356319 3.310615-.176298.912671-1.913467 2.951066-.155886 2.325357-.011515.999016.6899578 3.443994 1.8225154 2.248537-.5502951-.988643-.6076315-2.286074.889511-2.138745 1.800201-.55093-.714639-.151373-1.219543.255242-1.6296621-.09271 1.071936-1.511832 1.812905-1.43819 1.875957-.425408 3.981398-.426865 5.556042-1.667896-1.036463.08518-2.789754.723762-4.148177.777904-1.509129.09541-2.973864.619821-4.438348.807007-.2568112-1.173012 1.587826-2.175486 2.446573-2.934513 1.77936-1.156109 3.94186-1.633685 6.047576-1.550288-1.817076-.467215-3.710722.143779-5.368575.852263-.421347.472076-2.516709 1.657821-1.676864.21695 1.323501-1.905659 3.376099-3.343627 5.696453-3.681978.708622-.276929-1.474568-.01543-1.874003.230003-1.820819.650948-3.315445 2.022431-4.3600873 3.625405-1.6487012-.172657 1.6788333-1.952989.1696813-2.877369-1.014003-.497552-1.9474728-1.390835-.7941769-2.412941 1.7493329-1.0778764 2.5729329-2.9434369 4.0663739-4.2834945.921528-.9913359.276584-2.7280744 2.099451-2.8467972.887035-.1169021 1.659557-1.3148669.291186-.4880443-1.677809.3434378-3.084897 2.15397-4.744451 1.9472326-1.021227-1.1431564.847208-1.9900036.952613-2.7444587-.751879-.0390522-.094998.8932383-.950294.9297272-1.0372005.4807503-.327578 2.1247466-.590737 2.3931564-1.7821266.402566-3.2474058 2.1318632-5.1621281 2.5502581-1.5494326-.4202975-2.0920688-2.9267527-1.881268-4.3172095.9492871.0065352 1.5903621 3.2287548 2.3981307 1.0050175.5635541-1.4506285 2.1635098-1.785995 2.8420142-.2766398 1.0211732.3472645-1.3152825-.9970061.2051604-1.280052 1.9787828-.580317-.9830926-.3314906-1.6319682.0078885-1.3011021.2999278-2.2504451 2.8096807-3.1382536.6976067-.3536796-1.0642997-1.5648477-.8661887-1.0403638.3313598.5995919 1.9592258.8189439 4.1127964 1.9699091 5.8263132.4431168 1.168789-.8522321 1.612465-1.6303696 1.509194-1.4527381 1.527429.4471854 2.982667.5481473 4.485325.34677 1.9139-.0003392 3.862962.2027924 5.773561.3430522 1.422588 1.8465113 1.978267 2.8575093 2.869016 1.0823911.698851 2.3199204 1.304236 3.0044361 2.44968-.2287112 1.630888-3.3953886-.641953-3.3146755.8128.9500651.507165.7487426.03465.600452-.153541 1.9185282-.176436 3.7001823.696753 5.5208573 1.141634-.406486.718106-2.544276-.0037-3.5716546.184171-.7059405-.05343-3.5422859.06957-1.5419884.190787 2.980407.277832 5.99404.453487 8.898645 1.228357.941829.631637-1.026939 3.290821.970842 2.069398 3.484802-1.981345 7.31726-3.261679 11.19865-4.193303.786831-.230527 1.71135-1.681052.202697-.934876-1.877537.517795-3.673161 1.297651-5.56433 1.769718.78565-1.920824 3.401317-1.565166 4.91318-2.572574.884171.282827 2.71637-.5789 1.009553-.932219-.284333-1.479946.967059-2.879952 1.09473-4.399957.504201-1.717129 1.399949-3.288309 2.014682-4.956144-.07734-1.715739-1.138106-3.423272.192281-4.92781.348928-1.430143-1.156386-1.734632-2.057546-1.119698-1.936545-.674557-1.299771-3.1653515-1.739751-4.7435759-.397801-1.9054386-1.312775-3.7230807-2.710616-5.09032212-1.752057-.77194422.523056 2.94869842-1.221027 1.52899502-1.230587-.7744462-2.509689-1.55867089-3.964182-1.81488992zm1.339019 1.56802542c.27472.6607502.830734.2803477 0 0zm.662453.4398344c.27355.6606623.830692.2806305 0 0zm-9.394451 2.6996423c-.443844 2.4547505-3.127308 3.4207025-4.2699534 5.4657078-.5231614 1.630936-2.8855048 2.881546-3.862794.971749-.3081288-1.473375-.4549678-3.5063886 1.4932083-3.7983201 1.882167-.6024281 3.5212961-1.7775441 5.4423101-2.305336.394286-.1275444.79347-.2402945 1.197229-.3338007zm-6.2134884.1590095c-.1112111.7138678.751272-.035753 0 0zm-3.7509539 6.6258133c2.1591489.390251 4.3033056.872704 6.4077573 1.49577.579757 2.126014-2.3544842 1.735142-3.5607018 1.273215-1.356819.01183-4.0536916-.282118-3.0427444-2.294418.010343-.163563-.015602-.414664.1956889-.474567zm19.4168463 3.61457c-.949335-.262937.481565.393624 0 0zm-2.538067 1.708733c-.24929 1.444526-3.000736 1.583415-2.048231 2.932942.947705-1.222686 2.777681-1.524447 3.646055-.03281 1.154579.899517 3.203337 1.388374 4.060456 1.994534-.664675.931657-2.297475 1.928988-.968185 3.088402.203918-.634684.578399-2.163101 1.127553-.860311-.130612-1.238637.31475-2.793972 1.347437-2.352006-.771345-.473135-1.304271-1.664547.138067-1.414486 1.194529-.186347-1.247207-.64037-1.768238-.282487-1.701874.143582-3.686838-.02792-4.998882-1.240112-.492933-.484212-.631272-1.168684-.536032-1.833662zm1.90928 1.080908c.388317.762972 3.335901 1.606086 1.315596.69785-.45335-.202775-.899464-.42556-1.315596-.69785zm-6.001245 1.627071c-.949297-.262644.481165.39341 0 0zm-1.015039.122656c-1.117552.02052.78581.149806 0 0zm-1.49192.111139c-1.130237.101426 1.20582.104004 0 0zm3.957359.671898c-.95327 1.258553-2.881261-.158432-3.8629.588167 1.892615-.410184 3.729622.908051 3.479664 2.805586.619345.533012 2.133429-.64728.605697-.229284-1.104693-.549271-.806378-2.339193-.222461-3.164469zm.44565.272406c.29639 1.206272 2.957635 2.025608 2.894104 1.716546-.667508.05479-1.751564-.886056-.416315-.664037 1.44205-.440142-1.444058-.238947-1.848042-.596477-.238712-.105215-.458923-.257559-.629747-.456032zm-4.626209.939138c.514823 1.042022 3.612592-.130817 1.339928.02947-.446621-.0107-.893181-.02501-1.339928-.02947zm-2.191871 1.390978c.899642.373693-.209036 3.17884 1.143726 1.76247 1.735953-.918617 2.234897 2.495593 1.652986 2.512833.09032-.994783 1.609517-1.018495 1.878655-.104418-1.263882-1.576321-2.900083-2.823146-4.475226-4.063514zm12.542028.642693c-.809656.09875-1.049781 1.518121 0 0zm-4.178899.592066c-.657037.312878.597409.311439 0 0zm-2.638392.01519c-1.668288.648907 3.347602.291117.896456.201246-.297394.01145-.679854.05587-.896456-.201246zm1.363267.825098c-.149499.429009.972364.06013.208383.02263zm-.337568.107832c-.849868-.746019-2.151238 1.86988-.883169.396028.267759-.183952.572749-.305677.883169-.396028zm4.28931 1.380337c1.806481 1.342073-.90339 3.814061-2.141643 1.948744-1.006871-.767157 2.8556.341406 1.046679-.324993-1.774312-.567802.743544-1.081932 1.094964-1.623751zm7.467808 1.304965c-.949481-.262712.481296.393481 0 0zm-10.670288.671556c1.939669-.09813.650353 2.127388-.718137 1.578539-1.551291.101357-2.460183-1.625886-.35024-1.459825.356288-.03786.714345-.06175 1.068377-.118714zm2.151811.77332c1.147874.985874-2.030267 1.840569-2.157259 1.577015.573679-.692359 1.312291-1.259092 2.157259-1.577015z" fill="#333" stroke-width=".154394"/></svg>