<svg height="128" viewBox="0 0 33.866666 33.866666" width="128" xmlns="http://www.w3.org/2000/svg"><path d="m22.627573 15.397026-6.828654 11.400209h-1.237133l1.223018-7.42838-3.84061.0059a.61704085.6189996 0 0 1 -.617422-.619383c0-.146972.136083-.395741.136083-.395741l6.806271-11.3866855 1.259006.00548-1.253921 7.4398605 3.867697-.0055a.61704085.6189996 0 0 1 .617424.619383c0 .138798-.05429.260764-.131374.364101l.000602.000408zm-5.581219-14.83455749c-8.9903312 0-16.27807677 7.31011549-16.27807677 16.32975149 0 9.019634 7.28774557 16.32975 16.27807677 16.32975 8.990331 0 16.278076-7.310881 16.278076-16.32975 0-9.0188717-7.286982-16.32975149-16.278076-16.32975149z" fill="#0379c4" fill-rule="evenodd" stroke-width=".127374"/></svg>