<svg xmlns="http://www.w3.org/2000/svg" style="display: none;"><symbol id="cat-icon-pluralsight" viewBox="0 0 24 24"><g fill-rule="evenodd" stroke-linejoin="round" class="nc-icon-wrapper"><path d="M11.969 23.973c-6.6 0-12-5.4-12-12 0-5.128 3.26-9.532 7.809-11.241a11.888 11.888 0 0 1 4.191-.759c6.6 0 12 5.4 12 12s-5.4 12-12 12M8.895 5.778v12.391l10.754-6.196L8.895 5.778zm1.049 1.769l7.65 4.426-7.65 4.426V7.547zm-3.526-.419v9.689l8.401-4.844-8.401-4.845zm1.051 1.8l5.311 3.045-5.311 3.061V8.912" fill="#b60c4b" fill-rule="nonzero"/><path fill="#fff" d="M8.891 7.973h1.051v7.487H8.891z"/></g></symbol><symbol id="cat-icon-p-hub" viewBox="0 0 288 300"><g fill-rule="evenodd" stroke-linejoin="round" class="nc-icon-wrapper"><path d="M61 15.9c-6.3 1-13.3 2.4-15.4 3.1-10.6 3.5-22 12.7-29.2 23.6C12.7 48.1 9 58.9 9 64c0 1.4.6-.6 0 0-1.6 1.6-3.6 140.4-2.1 157.5.9 10.9 3 22.3 5.2 28 3.7 9.5 15.3 22.4 24.7 27.5 15.2 8.2 24.3 9 107.5 9 68.3 0 76.5-.4 89.2-3.5 16-4 29.5-15.1 36.8-30.2 6.7-14.1 6.8-16.2 6.4-107.2-.3-88.3-.1-85-7.1-98.9-5.9-11.7-18.8-23-31.4-27.3-13-4.5-20.4-4.9-95.2-4.8-61.7.1-71.9.3-82 1.8zm127 47.5c12.7 4.2 20.4 9 29.5 18.1C230.9 94.9 237 109.7 237 129c0 22.8-10.1 42.5-28.4 55.4-14.5 10.2-23.4 12.5-51.3 13.3l-20.2.6-.3 14.8c-.3 16.4-.6 17.2-8.2 23.3l-3.8 3.1-33.8.6-.2-33.8-.3-33.8-6.3.1c-7.1.1-7.4-.3-6.9-8.6l.2-4.5h60l.2 5c.1 2.7.2 5.3.2 5.8.1.4 4-2 8.9-5.4 4.8-3.3 12.3-8.5 16.7-11.5 4.4-3 12.3-8.4 17.5-12 5.2-3.6 11.6-8 14.2-9.7 2.6-1.8 4.8-3.5 4.8-3.9 0-.7-1.7-1.8-30-20.3-23.1-15.1-23-15-27.7-17.9L138 87v10.9l-29.3.3c-16.2.2-30.1.1-31.1 0-1.5-.3-1.6-1.3-1.2-6.5.2-3.4.5-6.3.5-6.5.1-.1 3.3-.2 7.1-.2h7V59.9l44.3.3 44.2.4 8.5 2.8zM68.5 85.5v13h-14l-.3-5.4c-.5-8-.3-8.2 7.5-7.9l6.8.3zM59 110v13.1l-6.7-.3-6.8-.3v-6.3l-.1-6.2H59zm78.5.5v12l-35.2.3-35.3.2v-13l35.3.2 35.2.3zM78 134v14.1l-6.7-.3-6.8-.3-.3-5.4c-.5-7.9-.2-8.1 7.3-8.1H78zm59.8 1c.2 0 .2 2.8 0 6.2l-.3 6.3h-51l-.3-5.4c-.5-9-2.5-8.4 26.1-7.7 13.8.3 25.3.6 25.5.6zm-68 30.1c.4 7.1-.7 8.1-8.5 7.7l-5.8-.3-.6-13.6 14.6.6.3 5.6z" fill="url(#_Linear1)" fill-rule="nonzero"/><defs><linearGradient id="_Linear1" x1="0" y1="0" x2="1" y2="0" gradientUnits="userSpaceOnUse" gradientTransform="matrix(270.462 0 0 -271.913 6.37 150.044)"><stop offset="0" stop-color="#4179ff" stop-opacity="1"/><stop offset=".56" stop-color="#342cfe" stop-opacity="1"/><stop offset="1" stop-color="#2e0bfe" stop-opacity="1"/></linearGradient></defs></g></symbol><symbol id="cat-icon-microsoft" viewBox="0 0 291.346 291.346"><g class="nc-icon-wrapper"><path d="M117.547 266.156L0 249.141v-94.296h117.547v111.311z" fill="#26A6D1"/><path d="M291.346 136.51H136.31l.055-114.06L291.346.009V136.51z" fill="#3DB39E"/><path d="M291.346 291.337l-155.091-22.459.182-114.015h154.909v136.474z" fill="#F4B459"/><path d="M117.547 136.51H0V42.205l117.547-17.024V136.51z" fill="#E2574C"/></g></symbol><symbol id="cat-icon-udemy" viewBox="0 0 260.2 213.4"><g class="nc-icon-wrapper"><path class="st0" d="M88.5.9c11.6 3.6 15.2 12.9 15.2 23.5-.1 8.4-1.1 16.8-3.1 25-4.3 18.7-9.6 37.2-14 55.8-3.6 15.3-6.9 30.8-7 46.6.1 4.3.8 8.6 2 12.7 2.3 8.2 9.2 8.8 14.4 3.8 3.3-3.2 6.3-6.6 9-10.3 13-17.3 24.5-35.7 34.3-55 9.5-18.5 31.2-60.3 32.5-62.8 6.8-12.5 25.6-10.4 31.3 1.8 3.2 6.6 5 13.9 5.3 21.2.5 15.8 2 59.9 2.7 66.2 1.3 12.2 9.1 16.1 19.5 9.3 6.3-4.1 12-9.3 17.7-14.2 5.3-4.7 8.1-4.2 10.7 2.4 2.3 5.8 1.3 11.6-.6 17.1-6.4 18.6-20.3 28.5-38.8 32.5-5.9 1.3-12 1.4-18 .4-13.3-2.2-21.8-9.9-26.9-21.8-4.9-11.5-6.4-44.2-7.5-48.4-1.8 3.8-23.1 47.7-34.3 64.4-7 10.7-15.5 20.4-25.3 28.7-9.7 8.1-20.7 13.1-33.6 13.4-15.6.4-26.9-6.7-34.7-19.9-5-8.5-7.1-18-7.8-27.8-1-13.7 1.2-27.1 4.2-40.5 1-4.3 1.7-8.7 2.8-14.2-4.3 2.2-7.1 4.2-10.3 5.3-3.8 1.3-7.9 2.6-11.9 2.5C2.1 118.2 0 102.5 0 99.9c4.8-3.7 9.9-7.1 14.3-11.1 21-19 36.8-41.8 48.2-67.6C66.3 12.7 71 5.4 79.4.9c2.8-1.2 5.3-1.3 9.1 0z" style="" fill="#eb524f"/></g></symbol><symbol id="cat-icon-sololearn" viewBox="0 0 49 49"><g fill-rule="evenodd" stroke-linejoin="round" class="nc-icon-wrapper"><g id="g26"><g id="g4"><path id="path2" d="M15.89 1.868c-6.8 2.2-13.9 8.4-13 15.4 0 8 8 14.2 15.9 16.8-6.2-7.1-10.6-15.9-6.7-25.6 1.8-4.1 3.8-6.6 3.8-6.6z" fill="#6cb94f" fill-rule="nonzero"/></g><g id="g8"><path id="path6" d="M1.19 19.168c-2.7 7-.1 15.8 5.2 19.4 7.1 5.3 16.8 2.7 23.9-3.5-9.7 1.8-20.3 0-25.7-8.7-2.4-4.1-3.4-7.2-3.4-7.2z" fill="#158e9b" fill-rule="nonzero"/></g><g id="g12"><path id="path10" d="M7.59 41.268c4.9 6 13.8 8.5 20.9 5.8 4.8-1.9 8.4-7.1 9.2-13 .5-3-.1-5.5-.5-8.5-3.5 9.7-11.4 16.5-21.6 17-4.7-.3-8-1.3-8-1.3z" fill="#2fb7e9" fill-rule="nonzero"/></g><g id="g16"><path id="path14" d="M31.49 47.468c7.7-1.9 15.6-9 15.6-16.9 0-5.3-5.5-14.8-15.9-16.8 7.1 7.1 11.5 18.6 5.4 27.5-2.7 3.9-5.1 6.2-5.1 6.2z" fill="#eb58a0" fill-rule="nonzero"/></g><g id="g20"><path id="path18" d="M48.59 28.368c1.1-7.6-.7-17.3-7.7-20.9-4.4-2.7-17.3-.1-21.2 7.1 8.9-3.5 20.3-2.7 25.7 6.8 2.3 3.9 3.2 7 3.2 7z" fill="#ea545e" fill-rule="nonzero"/></g><g id="g24"><path id="path22" d="M39.39 4.968c-5.6-4.5-14.4-7.1-20.6-2.7-7.1 4.4-8.8 14.1-4.4 22.1.9-9.7 8-17.7 17.4-19.4 4.4-.5 7.6 0 7.6 0z" fill="#ef7543" fill-rule="nonzero"/></g></g></g></symbol><symbol id="cat-icon-linkedin" viewBox="0 0 382 382"><g class="nc-icon-wrapper"><path d="M347.445 0H34.555C15.471 0 0 15.471 0 34.555v312.889C0 366.529 15.471 382 34.555 382h312.889C366.529 382 382 366.529 382 347.444V34.555C382 15.471 366.529 0 347.445 0zM118.207 329.844c0 5.554-4.502 10.056-10.056 10.056H65.345c-5.554 0-10.056-4.502-10.056-10.056V150.403c0-5.554 4.502-10.056 10.056-10.056h42.806c5.554 0 10.056 4.502 10.056 10.056v179.441zM86.748 123.432c-22.459 0-40.666-18.207-40.666-40.666S64.289 42.1 86.748 42.1s40.666 18.207 40.666 40.666-18.206 40.666-40.666 40.666zM341.91 330.654a9.247 9.247 0 0 1-9.246 9.246H286.73a9.247 9.247 0 0 1-9.246-9.246v-84.168c0-12.556 3.683-55.021-32.813-55.021-28.309 0-34.051 29.066-35.204 42.11v97.079a9.246 9.246 0 0 1-9.246 9.246h-44.426a9.247 9.247 0 0 1-9.246-9.246V149.593a9.247 9.247 0 0 1 9.246-9.246h44.426a9.247 9.247 0 0 1 9.246 9.246v15.655c10.497-15.753 26.097-27.912 59.312-27.912 73.552 0 73.131 68.716 73.131 106.472v86.846z" fill="#0077B7"/></g></symbol></svg>