<svg height="128" viewBox="0 0 33.866666 33.866666" width="128" xmlns="http://www.w3.org/2000/svg" xmlns:xlink="http://www.w3.org/1999/xlink"><linearGradient id="a" gradientTransform="matrix(.1594881 0 0 .10945269 1.149288 6.201171)" gradientUnits="userSpaceOnUse" x1="-5.508684" x2="198.29675" y1="63.454958" y2="133.96135"><stop offset="0" stop-color="#2298bd"/><stop offset="1" stop-color="#0ed7b5"/></linearGradient><path d="m16.962274 6.2011716c-4.216755 0-6.852334 2.4116146-7.9064953 7.2347044 1.5813013-2.411616 3.4261083-3.315953 5.5345483-2.713015 1.202897.343931 2.062728 1.342236 3.014474 2.447082 1.550414 1.800057 3.344693 3.883283 7.263967 3.883283 4.216752 0 6.852335-2.411615 7.906493-7.2347028-1.581297 2.4116138-3.426107 3.3159518-5.534544 2.7130138-1.202902-.343931-2.062732-1.342235-3.014476-2.447082-1.550412-1.8000561-3.344693-3.8832834-7.263967-3.8832834zm-7.9064953 10.8520544c-4.2167554 0-6.8523342 2.411618-7.9064915 7.234705 1.5812968-2.411615 3.4261048-3.315953 5.534545-2.713014 1.2028992.343933 2.0627275 1.342233 3.0144735 2.447084 1.5504143 1.800054 3.3446933 3.883284 7.2639683 3.883284 4.216756 0 6.852335-2.411615 7.906494-7.234706-1.581298 2.411618-3.426106 3.315953-5.534545 2.713017-1.2029-.343934-2.062731-1.342239-3.014475-2.447084-1.550414-1.800057-3.344695-3.883286-7.2639693-3.883286z" fill="url(#a)" stroke-width=".132124"/></svg>