<?xml version="1.0" encoding="UTF-8" standalone="no"?><!DOCTYPE svg PUBLIC "-//W3C//DTD SVG 1.1//EN" "http://www.w3.org/Graphics/SVG/1.1/DTD/svg11.dtd"><svg width="100%" height="100%" viewBox="0 0 401 300" version="1.1" xmlns="http://www.w3.org/2000/svg" xmlns:xlink="http://www.w3.org/1999/xlink" xml:space="preserve" xmlns:serif="http://www.serif.com/" style="fill-rule:evenodd;clip-rule:evenodd;stroke-linecap:round;stroke-linejoin:bevel;stroke-miterlimit:2;"><path id="Gallery" d="M360.719,21.605c10.928,0 19.79,8.701 19.79,19.452l0,217.849c0,10.75 -8.862,19.467 -19.79,19.467l-321.738,0c-10.93,0 -19.792,-8.717 -19.792,-19.467l0,-217.849c0,-10.751 8.862,-19.452 19.792,-19.452l321.738,0Z" style="fill:none;stroke:#caa803;stroke-width:2.78px;"/><path d="M360.719,21.605c10.928,0 19.79,8.701 19.79,19.452l0,217.849c0,10.75 -8.862,19.467 -19.79,19.467l-321.738,0c-10.93,0 -19.792,-8.717 -19.792,-19.467l0,-217.849c0,-10.751 8.862,-19.452 19.792,-19.452l321.738,0Z" style="fill:#4a5766;"/><path d="M380.509,149.989c-2.683,-20.688 -12.431,-72.627 -26.236,-110.565l-64.345,194.527l-258.655,27.977l231.13,16.445c34.867,-0.65 68.913,-0.211 86.461,0c23.853,0.286 25.279,-2.118 31.645,-16.325c1.733,-3.867 -0.043,-29.801 0,-33.807c0.223,-20.339 -1.301,-42.378 0,-78.252Z" style="fill:#23272b;fill-opacity:0.8;fill-rule:nonzero;"/><path d="M49.632,39.744l304.641,-0.32l0,222.504l-323,-4.892l0,-159.417l52.391,-57.875l-34.032,0Z" style="fill:#fff;"/><path d="M82.873,39.744l-51.6,57.497l51.775,-0.165" style="fill:#dbe1ec;"/><rect x="31.273" y="160.744" width="323" height="101.184" style="fill:#e9e9e9;"/><rect x="155.444" y="74.781" width="26.156" height="148.416" style="fill:#f3ca00;"/><g><rect x="155.444" y="116.743" width="19.582" height="6.352" style="fill:#e7a003;"/><rect x="155.423" y="101.704" width="13.099" height="6.352" style="fill:#e7a003;"/><rect x="155.423" y="86.079" width="19.582" height="6.352" style="fill:#e7a003;"/></g><g><rect x="155.464" y="161.144" width="19.582" height="6.352" style="fill:#e7a003;"/><rect x="155.444" y="146.106" width="13.099" height="6.352" style="fill:#e7a003;"/><rect x="155.444" y="130.48" width="19.582" height="6.352" style="fill:#e7a003;"/></g><g><path d="M175.066,205.546l-19.581,0l0,6.352l19.581,0l0,-6.352Zm-6.504,-15.039l-13.098,0l0,6.351l13.098,0l0,-6.351Zm6.484,-15.626l-19.582,0l0,6.352l19.582,0l0,-6.352Z" style="fill:#e7a003;"/></g><path d="M192.436,160.707l21.333,0l0,41.972l43.975,0l-30.496,-41.972l22.808,0l31.787,45.532l11.095,16.553l-100.502,0l0,-62.085Z" style="fill:#f39a00;"/><path d="M213.769,160.933l-21.333,0l0,-86.152l18.768,30.501l38.852,55.651l-22.808,0c-4.493,-6.183 -8.986,-12.367 -13.479,-18.551l0,18.551Z" style="fill:#f3ca00;"/></svg>