<?xml version="1.0" encoding="UTF-8" standalone="no"?>
<svg
   xmlns:dc="http://purl.org/dc/elements/1.1/"
   xmlns:cc="http://creativecommons.org/ns#"
   xmlns:rdf="http://www.w3.org/1999/02/22-rdf-syntax-ns#"
   xmlns:svg="http://www.w3.org/2000/svg"
   xmlns="http://www.w3.org/2000/svg"
   xmlns:xlink="http://www.w3.org/1999/xlink"
   width="128"
   height="128"
   viewBox="0 0 33.866666 33.866666"
   version="1.1"
   id="svg8">
  <defs
     id="defs2">
    <linearGradient
       gradientTransform="matrix(0.4345,-0.9318,-0.9318,-0.4345,6223.4761,-5052.7427)"
       y2="2820.8604"
       x2="-6841.793"
       y1="2820.8604"
       x1="-8535.5879"
       gradientUnits="userSpaceOnUse"
       id="SVGID_4_">
      <stop
         id="stop3219"
         style="stop-color:#9C2063"
         offset="0.3233" />
      <stop
         id="stop3221"
         style="stop-color:#C82037"
         offset="0.6302" />
      <stop
         id="stop3223"
         style="stop-color:#CC2135"
         offset="0.7514" />
      <stop
         id="stop3225"
         style="stop-color:#E87726"
         offset="1" />
    </linearGradient>
    <linearGradient
       gradientTransform="matrix(0.4345,-0.9318,-0.9318,-0.4345,6223.4761,-5052.7427)"
       y2="2654.2649"
       x2="-6946.8647"
       y1="2654.2649"
       x1="-8640.6592"
       gradientUnits="userSpaceOnUse"
       id="SVGID_7_">
      <stop
         id="stop3252"
         style="stop-color:#9C2063"
         offset="0.3233" />
      <stop
         id="stop3254"
         style="stop-color:#C82037"
         offset="0.6302" />
      <stop
         id="stop3256"
         style="stop-color:#CC2135"
         offset="0.7514" />
      <stop
         id="stop3258"
         style="stop-color:#E87726"
         offset="1" />
    </linearGradient>
    <linearGradient
       xlink:href="#SVGID_4_"
       id="linearGradient2116"
       gradientUnits="userSpaceOnUse"
       gradientTransform="matrix(0.4345,-0.9318,-0.9318,-0.4345,6223.4761,-5052.7427)"
       x1="-8535.5879"
       y1="2820.8604"
       x2="-6841.793"
       y2="2820.8604" />
    <linearGradient
       xlink:href="#SVGID_7_"
       id="linearGradient2122"
       gradientUnits="userSpaceOnUse"
       gradientTransform="matrix(0.4345,-0.9318,-0.9318,-0.4345,6223.4761,-5052.7427)"
       x1="-8640.6592"
       y1="2654.2649"
       x2="-6946.8647"
       y2="2654.2649" />
  </defs>
  <metadata
     id="metadata5">
    <rdf:RDF>
      <cc:Work
         rdf:about="">
        <dc:format>image/svg+xml</dc:format>
        <dc:type
           rdf:resource="http://purl.org/dc/dcmitype/StillImage" />
        <dc:title></dc:title>
      </cc:Work>
    </rdf:RDF>
  </metadata>
  <g
     id="layer1">
    <g
       id="g2816"
       transform="matrix(0.2822222,0,0,0.2822222,23.764228,-28.151618)">
      <g
         transform="matrix(0.49007192,0,0,0.28709308,-107.83837,-27.985155)"
         id="layer1-9">
        <g
           transform="matrix(0.22594137,0,0,0.22594137,72.15641,466.78864)"
           id="g3169">
          <linearGradient
             gradientTransform="matrix(0.4345,-0.9318,-0.9318,-0.4345,6223.4761,-5052.7427)"
             y2="2496.6895"
             x2="-6636.2373"
             y1="2774.2998"
             x1="-6873.6479"
             gradientUnits="userSpaceOnUse"
             id="linearGradient4274">
            <stop
               id="stop4276"
               style="stop-color:#F59723"
               offset="0" />
            <stop
               id="stop4278"
               style="stop-color:#F69822"
               offset="0.3123" />
            <stop
               id="stop4280"
               style="stop-color:#E87726"
               offset="0.8383" />
          </linearGradient>
          <path
             id="path3186"
             style="fill:none"
             d="" />
          <linearGradient
             gradientTransform="matrix(0.4345,-0.9318,-0.9318,-0.4345,6223.4761,-5052.7427)"
             y2="2804.9607"
             x2="-6936.9253"
             y1="2804.9607"
             x1="-8630.7197"
             gradientUnits="userSpaceOnUse"
             id="linearGradient4291">
            <stop
               id="stop4293"
               style="stop-color:#9C2063"
               offset="0.3233" />
            <stop
               id="stop4295"
               style="stop-color:#C82037"
               offset="0.6302" />
            <stop
               id="stop4297"
               style="stop-color:#CC2135"
               offset="0.7514" />
            <stop
               id="stop4299"
               style="stop-color:#E87726"
               offset="1" />
          </linearGradient>
          <linearGradient
             gradientTransform="matrix(0.4345,-0.9318,-0.9318,-0.4345,6223.4761,-5052.7427)"
             y2="2635.2839"
             x2="-7416.9194"
             y1="2635.2839"
             x1="-8426.2559"
             gradientUnits="userSpaceOnUse"
             id="linearGradient4302">
            <stop
               id="stop4304"
               style="stop-color:#282661"
               offset="0" />
            <stop
               id="stop4306"
               style="stop-color:#662E8C"
               offset="9.548389e-02" />
            <stop
               id="stop4308"
               style="stop-color:#9E2064"
               offset="0.7882" />
            <stop
               id="stop4310"
               style="stop-color:#CC2032"
               offset="0.9487" />
          </linearGradient>
          <linearGradient
             gradientTransform="matrix(0.4345,-0.9318,-0.9318,-0.4345,6223.4761,-5052.7427)"
             y2="2820.8604"
             x2="-6841.793"
             y1="2820.8604"
             x1="-8535.5879"
             gradientUnits="userSpaceOnUse"
             id="linearGradient4313">
            <stop
               id="stop4315"
               style="stop-color:#9C2063"
               offset="0.3233" />
            <stop
               id="stop4317"
               style="stop-color:#C82037"
               offset="0.6302" />
            <stop
               id="stop4319"
               style="stop-color:#CC2135"
               offset="0.7514" />
            <stop
               id="stop4321"
               style="stop-color:#E87726"
               offset="1" />
          </linearGradient>
          <linearGradient
             gradientTransform="matrix(0.4345,-0.9318,-0.9318,-0.4345,6223.4761,-5052.7427)"
             y2="2797.8789"
             x2="-7521.9175"
             y1="2797.8789"
             x1="-8412.0576"
             gradientUnits="userSpaceOnUse"
             id="linearGradient4324">
            <stop
               id="stop4326"
               style="stop-color:#282661"
               offset="0" />
            <stop
               id="stop4328"
               style="stop-color:#662E8C"
               offset="9.548389e-02" />
            <stop
               id="stop4330"
               style="stop-color:#9E2064"
               offset="0.7882" />
            <stop
               id="stop4332"
               style="stop-color:#CC2032"
               offset="0.9487" />
          </linearGradient>
          <linearGradient
             gradientTransform="matrix(0.4345,-0.9318,-0.9318,-0.4345,6223.4761,-5052.7427)"
             y2="2645.4897"
             x2="-6841.793"
             y1="2645.4897"
             x1="-8535.5879"
             gradientUnits="userSpaceOnUse"
             id="linearGradient4335">
            <stop
               id="stop4337"
               style="stop-color:#9C2063"
               offset="0.3233" />
            <stop
               id="stop4339"
               style="stop-color:#C82037"
               offset="0.6302" />
            <stop
               id="stop4341"
               style="stop-color:#CC2135"
               offset="0.7514" />
            <stop
               id="stop4343"
               style="stop-color:#E87726"
               offset="1" />
          </linearGradient>
          <linearGradient
             gradientTransform="matrix(0.4345,-0.9318,-0.9318,-0.4345,6223.4761,-5052.7427)"
             y2="2654.2649"
             x2="-6946.8647"
             y1="2654.2649"
             x1="-8640.6592"
             gradientUnits="userSpaceOnUse"
             id="linearGradient4346">
            <stop
               id="stop4348"
               style="stop-color:#9C2063"
               offset="0.3233" />
            <stop
               id="stop4350"
               style="stop-color:#C82037"
               offset="0.6302" />
            <stop
               id="stop4352"
               style="stop-color:#CC2135"
               offset="0.7514" />
            <stop
               id="stop4354"
               style="stop-color:#E87726"
               offset="1" />
          </linearGradient>
          <linearGradient
             gradientTransform="matrix(0.4345,-0.9318,-0.9318,-0.4345,6223.4761,-5052.7427)"
             y2="2593.446"
             x2="-6841.7925"
             y1="2593.446"
             x1="-8535.5889"
             gradientUnits="userSpaceOnUse"
             id="linearGradient4359">
            <stop
               id="stop4361"
               style="stop-color:#9C2063"
               offset="0.3233" />
            <stop
               id="stop4363"
               style="stop-color:#C82037"
               offset="0.6302" />
            <stop
               id="stop4365"
               style="stop-color:#CC2135"
               offset="0.7514" />
            <stop
               id="stop4367"
               style="stop-color:#E87726"
               offset="1" />
          </linearGradient>
          <linearGradient
             gradientTransform="matrix(0.4345,-0.9318,-0.9318,-0.4345,6223.4761,-5052.7427)"
             y2="2599.3242"
             x2="-6841.7925"
             y1="2599.3242"
             x1="-8535.5889"
             gradientUnits="userSpaceOnUse"
             id="linearGradient4372">
            <stop
               id="stop4374"
               style="stop-color:#9C2063"
               offset="0.3233" />
            <stop
               id="stop4376"
               style="stop-color:#C82037"
               offset="0.6302" />
            <stop
               id="stop4378"
               style="stop-color:#CC2135"
               offset="0.7514" />
            <stop
               id="stop4380"
               style="stop-color:#E87726"
               offset="1" />
          </linearGradient>
          <linearGradient
             gradientTransform="matrix(0.4345,-0.9318,-0.9318,-0.4345,6223.4761,-5052.7427)"
             y2="2600.5515"
             x2="-7209.6543"
             y1="2600.5515"
             x1="-7584.0386"
             gradientUnits="userSpaceOnUse"
             id="linearGradient4385">
            <stop
               id="stop4387"
               style="stop-color:#9C2063"
               offset="0.3233" />
            <stop
               id="stop4389"
               style="stop-color:#C82037"
               offset="0.6302" />
            <stop
               id="stop4391"
               style="stop-color:#CC2135"
               offset="0.7514" />
            <stop
               id="stop4393"
               style="stop-color:#E87726"
               offset="1" />
          </linearGradient>
          <g
             fill-rule="evenodd"
             clip-rule="evenodd"
             id="g3075"
             transform="matrix(5.5650396,0,0,9.4880674,-100.54629,-65.745697)">
            <path
               id="path3069"
               style="fill:#ffffff;fill-opacity:0"
               d="m 0,0 c 64.252,0 128.504,0 192.756,0 0,64.252 0,128.504 0,192.756 -64.252,0 -128.504,0 -192.756,0 C 0,128.504 0,64.252 0,0 Z" />
            <path
               id="path3071"
               style="fill:#5c6a86;fill-opacity:1"
               d="M 51.253,133.206 C 40.593002,129.27533 25.817962,130.44549 19.797684,118.85248 12.308893,104.48427 43.795477,110.69422 34.036372,99.101054 25.030147,80.560459 16.29847,59.670367 21.571443,38.759596 29.550265,19.986996 52.788127,13.623449 71.429833,17.2798 c 12.955167,1.179644 26.111261,0.316989 38.841117,3.502953 10.21636,2.370965 19.58844,-3.46297 29.64937,-3.024415 14.35034,0.01275 29.83083,8.89468 32.33532,23.961531 5.32515,22.487439 -3.19011,45.062819 -9.75485,66.298241 -4.40587,9.95516 -7.94262,23.58671 -20.27538,25.99158 -11.83332,0.39738 -23.61951,2.71128 -35.08749,3.0151 -8.590895,5.22362 -5.33776,17.07489 -7.374299,25.38645 -3.411434,12.37253 -19.2492,17.97271 -30.150911,11.72362 C 57.174101,168.69047 51.405307,154.51446 51.724437,141.60421 51.511684,138.8082 51.387603,136.00655 51.253,133.206 Z" />
            <path
               id="path3073"
               style="fill:#ffffff"
               d="M 58.247,121.368 C 50.82033,110.65281 56.764864,97.292774 64.351419,88.602106 67.90568,80.623282 72.757652,70.173078 66.68861,62.236997 60.542607,58.755833 47.856855,55.643846 56.111094,46.282269 67.120321,30.810201 89.095719,21.063248 107.10228,29.993711 c 9.55525,5.426034 16.09412,16.668009 16.00618,27.654037 -0.43245,6.392977 -10.17051,-2.177076 -15.23887,1.513756 -11.266909,2.198755 -12.531241,15.14009 -11.858249,24.477273 1.101271,8.974755 6.049939,17.397443 5.034679,26.616073 -9.89842,6.87844 -7.287222,19.60379 -6.569974,29.74015 0.01229,9.70162 -0.235275,24.52516 -11.789007,27.48184 C 71.636166,169.67465 60.747599,159.4923 61.320227,148.41722 59.848583,139.45368 59.777289,130.32363 58.247,121.368 Z m 60.792,4.068 c -6.55541,1.80133 -17.22778,-15.21794 -18.64207,-2.45285 3.99904,4.90754 14.38972,9.31734 18.64207,2.45285 z m 2.461,-16.215 c 10.37843,-8.37896 7.49831,-22.95223 7.31019,-34.605726 0.32558,-13.900965 -0.62047,-29.172253 -9.812,-40.400587 4.96302,-11.081235 18.94749,-6.963854 28.31175,-5.869491 14.13492,3.502998 20.05624,20.202823 17.37074,33.36028 -2.03308,19.675914 -8.55811,38.615684 -16.09994,56.771794 -8.10877,12.686 -21.62864,0.73775 -25.99686,-8.42547 z M 73.917,26.102 C 60.186874,32.473744 48.977274,45.02173 45.847295,60.02152 48.228185,74.05965 44.583968,88.455806 47.758881,102.41505 39.887544,96.52703 38.957326,85.652217 34.363112,77.498771 30.452393,66.749157 28.062485,55.272626 28.799728,43.792617 35.399646,26.169874 57.672163,22.668823 73.917,26.102 Z M 124.4,67.441 c -2.34341,12.292282 4.7374,26.775902 -4.57487,37.29694 -7.31268,9.35216 -17.03924,-2.14536 -18.04333,-10.326643 -1.15689,-9.478542 -3.725414,-21.271674 3.68905,-28.938707 5.62077,-5.677543 13.17649,-0.583394 18.92915,1.96841 z m -13.287,-1.865 c -11.500432,-0.951172 5.73922,8.556008 0,0 z M 50.166,62.468 C 64.062866,57.542538 69.598199,77.603353 61.169696,86.157807 60.15167,92.083712 50.122147,102.33409 50.69225,89.984156 50.416247,80.820979 52.934323,71.456214 50.166,62.468 Z m -1.27,51.933 c 10.235033,11.37555 -21.696626,10.15325 -13.781144,1.89106 4.523167,-0.37205 10.378321,2.4499 13.781144,-1.89106 z m 5.439,-48.825 c 2.915537,7.655771 7.092099,-7.097121 0.11872,-0.184182 z m -8.132,45.639 c -6.256796,3.18616 -24.105562,-3.95421 -19.94377,8.66498 7.222254,9.66096 27.047029,0.1355 29.038152,14.92442 1.648926,11.63488 0.692842,26.45315 11.939128,33.67873 9.69467,7.10279 26.292544,3.87334 29.666438,-8.64061 5.120662,-8.84662 -4.813104,-26.18261 8.176102,-28.91833 6.14661,7.54163 27.35191,-1.61267 15.67617,-9.1409 -6.4121,0.13988 -13.00029,-11.25801 -2.42241,-8.11029 8.20616,4.10993 11.11139,16.45667 21.4141,16.44167 11.46011,-2.81512 15.89311,-15.61209 19.01954,-25.69909 6.73185,-21.190988 15.57181,-44.400965 7.35382,-66.464423 C 159.0584,22.053225 137.96212,18.768146 123.10464,24.627621 112.31751,29.758257 101.58375,20.206438 90.40346,22.499311 79.814675,23.81245 69.649992,19.856141 59.156429,20.438607 45.698844,21.230047 30.475066,27.575591 25.325903,40.894521 20.984514,60.042032 30.241374,78.631517 37.410702,95.855774 40.036994,101.14197 42.974061,106.2738 46.203,111.215 Z" />
          </g>
        </g>
      </g>
    </g>
  </g>
</svg>
