<svg height="128" viewBox="0 0 33.866666 33.866666" width="128" xmlns="http://www.w3.org/2000/svg"><g clip-rule="evenodd" fill-rule="evenodd" transform="matrix(.17390617737 0 0 .17369503976 .1676916509 .56786611045)"><path d="m0 0h192.756v192.756c-64.252 0-128.504 0-192.756 0 0-64.252 0-128.504 0-192.756z" fill="none"/><path d="m51.253 133.206c-10.659998-3.93067-25.435038-2.76051-31.455316-14.35352-7.488791-14.36821 23.997793-8.15826 14.238688-19.751426-9.006225-18.540595-17.737902-39.430687-12.464929-60.341458 7.978822-18.7726 31.216684-25.136147 49.85839-21.479796 12.955167 1.179644 26.111261.316989 38.841117 3.502953 10.21636 2.370965 19.58844-3.46297 29.64937-3.024415 14.35034.01275 29.83083 8.89468 32.33532 23.961531 5.32515 22.487439-3.19011 45.062819-9.75485 66.298241-4.40587 9.95516-7.94262 23.58671-20.27538 25.99158-11.83332.39738-23.61951 2.71128-35.08749 3.0151-8.590895 5.22362-5.33776 17.07489-7.374299 25.38645-3.411434 12.37253-19.2492 17.97271-30.150911 11.72362-12.438609-5.44439-18.207403-19.6204-17.888273-32.53065-.212753-2.79601-.336834-5.59766-.471437-8.39821z" fill="#5c6a86"/><path d="m58.247 121.368c-7.42667-10.71519-1.482136-24.075226 6.104419-32.765894 3.554261-7.978824 8.406233-18.429028 2.337191-26.365109-6.146003-3.481164-18.831755-6.593151-10.577516-15.954728 11.009227-15.472068 32.984625-25.219021 50.991186-16.288558 9.55525 5.426034 16.09412 16.668009 16.00618 27.654037-.43245 6.392977-10.17051-2.177076-15.23887 1.513756-11.266909 2.198755-12.531241 15.14009-11.858249 24.477273 1.101271 8.974755 6.049939 17.397443 5.034679 26.616073-9.89842 6.87844-7.287222 19.60379-6.569974 29.74015.01229 9.70162-.235275 24.52516-11.789007 27.48184-11.050873 2.19781-21.93944-7.98454-21.366812-19.05962-1.471644-8.96354-1.542938-18.09359-3.073227-27.04922zm60.792 4.068c-6.55541 1.80133-17.22778-15.21794-18.64207-2.45285 3.99904 4.90754 14.38972 9.31734 18.64207 2.45285zm2.461-16.215c10.37843-8.37896 7.49831-22.95223 7.31019-34.605726.32558-13.900965-.62047-29.172253-9.812-40.400587 4.96302-11.081235 18.94749-6.963854 28.31175-5.869491 14.13492 3.502998 20.05624 20.202823 17.37074 33.36028-2.03308 19.675914-8.55811 38.615684-16.09994 56.771794-8.10877 12.686-21.62864.73775-25.99686-8.42547zm-47.583-83.119c-13.730126 6.371744-24.939726 18.91973-28.069705 33.91952 2.38089 14.03813-1.263327 28.434286 1.911586 42.39353-7.871337-5.88802-8.801555-16.762833-13.395769-24.916279-3.910719-10.749614-6.300627-22.226145-5.563384-33.706154 6.599918-17.622743 28.872435-21.123794 45.117272-17.690617zm50.483 41.339c-2.34341 12.292282 4.7374 26.775902-4.57487 37.29694-7.31268 9.35216-17.03924-2.14536-18.04333-10.326643-1.15689-9.478542-3.725414-21.271674 3.68905-28.938707 5.62077-5.677543 13.17649-.583394 18.92915 1.96841zm-13.287-1.865c-11.500432-.951172 5.73922 8.556008 0 0zm-60.947-3.108c13.896866-4.925462 19.432199 15.135353 11.003696 23.689807-1.018026 5.925905-11.047549 16.176283-10.477446 3.826349-.276003-9.163177 2.242073-18.527942-.52625-27.516156zm-1.27 51.933c10.235033 11.37555-21.696626 10.15325-13.781144 1.89106 4.523167-.37205 10.378321 2.4499 13.781144-1.89106zm5.439-48.825c2.915537 7.655771 7.092099-7.097121.11872-.184182zm-8.132 45.639c-6.256796 3.18616-24.105562-3.95421-19.94377 8.66498 7.222254 9.66096 27.047029.1355 29.038152 14.92442 1.648926 11.63488.692842 26.45315 11.939128 33.67873 9.69467 7.10279 26.292544 3.87334 29.666438-8.64061 5.120662-8.84662-4.813104-26.18261 8.176102-28.91833 6.14661 7.54163 27.35191-1.61267 15.67617-9.1409-6.4121.13988-13.00029-11.25801-2.42241-8.11029 8.20616 4.10993 11.11139 16.45667 21.4141 16.44167 11.46011-2.81512 15.89311-15.61209 19.01954-25.69909 6.73185-21.190988 15.57181-44.400965 7.35382-66.464423-7.06187-15.897932-28.15815-19.183011-43.01563-13.323536-10.78713 5.130636-21.52089-4.421183-32.70118-2.12831-10.588785 1.313139-20.753468-2.64317-31.247031-2.060704-13.457585.79144-28.681363 7.136984-33.830526 20.455914-4.341389 19.147511 4.915471 37.736996 12.084799 54.961253 2.626292 5.286196 5.563359 10.418026 8.792298 15.359226z" fill="#fff"/></g></svg>