<?xml version="1.0" encoding="UTF-8" standalone="no"?>
<svg
   xmlns:dc="http://purl.org/dc/elements/1.1/"
   xmlns:cc="http://creativecommons.org/ns#"
   xmlns:rdf="http://www.w3.org/1999/02/22-rdf-syntax-ns#"
   xmlns:svg="http://www.w3.org/2000/svg"
   xmlns="http://www.w3.org/2000/svg"
   xmlns:sodipodi="http://sodipodi.sourceforge.net/DTD/sodipodi-0.dtd"
   xmlns:inkscape="http://www.inkscape.org/namespaces/inkscape"
   width="128"
   height="128"
   viewBox="0 0 33.866666 33.866666"
   version="1.1"
   id="svg8"
   inkscape:version="1.0.1 (3bc2e813f5, 2020-09-07)"
   sodipodi:docname="eclipse.svg">
  <defs
     id="defs2">
    <linearGradient
       x1="23.219528"
       y1="505.63019"
       x2="23.219528"
       y2="-72.29315"
       id="a"
       gradientTransform="scale(3.3593276,0.29767862)"
       gradientUnits="userSpaceOnUse">
      <stop
         stop-color="#473788"
         offset="30.33%"
         id="stop865" />
      <stop
         stop-color="#2C2255"
         offset="87.2%"
         id="stop867" />
    </linearGradient>
    <linearGradient
       x1="23.220356"
       y1="505.64769"
       x2="23.220356"
       y2="-72.292922"
       id="b"
       gradientTransform="scale(3.359184,0.29769134)"
       gradientUnits="userSpaceOnUse">
      <stop
         stop-color="#473788"
         offset="30.33%"
         id="stop870" />
      <stop
         stop-color="#2C2255"
         offset="87.2%"
         id="stop872" />
    </linearGradient>
    <linearGradient
       x1="44.024869"
       y1="266.68168"
       x2="44.024869"
       y2="-38.117287"
       id="c"
       gradientTransform="scale(1.771762,0.5644099)"
       gradientUnits="userSpaceOnUse">
      <stop
         stop-color="#473788"
         offset="30.33%"
         id="stop875" />
      <stop
         stop-color="#2C2255"
         offset="86.31%"
         id="stop877" />
    </linearGradient>
  </defs>
  <sodipodi:namedview
     id="base"
     pagecolor="#ffffff"
     bordercolor="#666666"
     borderopacity="1.0"
     inkscape:pageopacity="0.0"
     inkscape:pageshadow="2"
     inkscape:zoom="1.979899"
     inkscape:cx="126.21617"
     inkscape:cy="91.071278"
     inkscape:document-units="px"
     inkscape:current-layer="g847"
     inkscape:document-rotation="0"
     showgrid="false"
     units="px"
     inkscape:window-width="1920"
     inkscape:window-height="1017"
     inkscape:window-x="-8"
     inkscape:window-y="-8"
     inkscape:window-maximized="1" />
  <metadata
     id="metadata5">
    <rdf:RDF>
      <cc:Work
         rdf:about="">
        <dc:format>image/svg+xml</dc:format>
        <dc:type
           rdf:resource="http://purl.org/dc/dcmitype/StillImage" />
        <dc:title></dc:title>
      </cc:Work>
    </rdf:RDF>
  </metadata>
  <g
     inkscape:label="Layer 1"
     inkscape:groupmode="layer"
     id="layer1">
    <g
       id="g847"
       transform="matrix(0.62436922,0,0,0.61457913,0.39395033,4.6666218)">
      <g
         id="g921"
         transform="matrix(0.19251095,0,0,0.20242386,1.8033676,-4.2247181)">
        <path
           d="M 70.382,153.049 H 31.26 c 5.18,17.768 14.792,33.693 28.864,47.768 22.434,22.436 49.41,33.64 80.956,33.64 6.306,0 12.416,-0.47 18.35,-1.365 23.761,-3.587 44.565,-14.33 62.39,-32.275 14.162,-14.07 23.842,-30 29.062,-47.768 H 70.382 Z M 48.81,99.915 H 28.373 a 119.493,119.493 0 0 0 -1.488,13.775 h 228.399 c -0.233,-4.7 -0.743,-9.285 -1.497,-13.775 M 26.885,126.482 c 0.231,4.703 0.738,9.287 1.488,13.775 h 225.418 a 118.86,118.86 0 0 0 1.5,-13.775 M 250.887,87.12 C 245.672,69.303 235.99,53.303 221.82,39.13 204.042,21.353 183.298,10.687 159.613,7.099 A 123.318,123.318 0 0 0 141.081,5.713 C 109.535,5.713 82.557,16.856 60.125,39.131 46.048,53.303 36.43,69.303 31.254,87.12"
           fill="#2c2255"
           id="path882" />
        <path
           d="M 20.093,120.09 C 20.093,59.753 65.407,9.621 124.357,0.803 122.895,0.75 121.425,0.691 119.948,0.691 53.796,0.692 0.164,54.15 0.164,120.09 c 0,65.943 53.63,119.397 119.784,119.397 1.482,0 2.951,-0.056 4.419,-0.11 C 65.407,230.56 20.093,180.427 20.093,120.09 Z"
           fill="#f7941e"
           id="path884" />
        <g
           id="g892">
          <path
             d="M 155.728,14.226 A 77.824,77.824 0 0 0 153.364,0.451 H 2.642 A 77.753,77.753 0 0 0 0.276,14.226 Z"
             fill="url(#a)"
             transform="translate(63.083,99.461)"
             id="path886"
             style="fill:url(#a)" />
          <path
             d="M 155.728,27.02 H 0.278 a 77.611,77.611 0 0 0 2.364,13.776 h 150.724 a 77.821,77.821 0 0 0 2.362,-13.776 z"
             fill="url(#b)"
             transform="translate(63.083,99.461)"
             id="path888"
             style="fill:url(#b)" />
          <path
             d="m 78.003,98.636 c 31.3,0 58.282,-18.441 70.706,-45.048 H 7.297 c 12.425,26.607 39.405,45.048 70.706,45.048 z"
             fill="url(#c)"
             transform="translate(63.083,99.461)"
             id="path890"
             style="fill:url(#c)" />
        </g>
        <g
           fill="#ffffff"
           id="g896">
          <path
             d="m 51.84,126.482 h 203.29 c 0.108,-2.035 0.168,-4.084 0.168,-6.147 0,-2.232 -0.081,-4.444 -0.208,-6.647 H 26.885 c -0.126,2.2 -0.208,4.415 -0.208,6.647 0,2.063 0.06,4.112 0.168,6.147 z M 69.924,87.12 H 31.252 c -1.271,4.166 -2.091,8.44 -2.879,12.795 H 253.065 A 113.52,113.52 0 0 0 249.99,87.12 m -11.617,53.135 H 28.371 c 0.766,4.352 1.638,8.623 2.888,12.794 h 219.479 a 113.252,113.252 0 0 0 3.023,-12.794 z"
             id="path894" />
        </g>
      </g>
    </g>
  </g>
</svg>
