<svg height="128" viewBox="0 0 33.866666 33.866666" width="128" xmlns="http://www.w3.org/2000/svg" xmlns:xlink="http://www.w3.org/1999/xlink"><linearGradient id="a" gradientTransform="matrix(.4345 -.9318 -.9318 -.4345 6223.4761 -5052.7427)" gradientUnits="userSpaceOnUse" x1="-6873.6479" x2="-6636.2373" y1="2774.2998" y2="2496.6895"><stop offset="0" stop-color="#f59723"/><stop offset=".3123" stop-color="#f69822"/><stop offset=".8383" stop-color="#e87726"/></linearGradient><linearGradient id="b"><stop offset=".3233" stop-color="#9c2063"/><stop offset=".6302" stop-color="#c82037"/><stop offset=".7514" stop-color="#cc2135"/><stop offset="1" stop-color="#e87726"/></linearGradient><linearGradient id="c" gradientTransform="matrix(.4345 -.9318 -.9318 -.4345 6223.4761 -5052.7427)" gradientUnits="userSpaceOnUse" x1="-8630.7197" x2="-6936.9253" xlink:href="#b" y1="2804.9607" y2="2804.9607"/><linearGradient id="d"><stop offset="0" stop-color="#282661"/><stop offset=".09548389" stop-color="#662e8c"/><stop offset=".7882" stop-color="#9e2064"/><stop offset=".9487" stop-color="#cc2032"/></linearGradient><linearGradient id="e" gradientTransform="matrix(.4345 -.9318 -.9318 -.4345 6223.4761 -5052.7427)" gradientUnits="userSpaceOnUse" x1="-8426.2559" x2="-7416.9194" xlink:href="#d" y1="2635.2839" y2="2635.2839"/><linearGradient id="f" gradientTransform="matrix(.4345 -.9318 -.9318 -.4345 6223.4761 -5052.7427)" gradientUnits="userSpaceOnUse" x1="-8535.5879" x2="-6841.793" xlink:href="#b" y1="2820.8604" y2="2820.8604"/><linearGradient id="g" gradientTransform="matrix(.4345 -.9318 -.9318 -.4345 6223.4761 -5052.7427)" gradientUnits="userSpaceOnUse" x1="-8412.0576" x2="-7521.9175" xlink:href="#d" y1="2797.8789" y2="2797.8789"/><linearGradient id="h" gradientTransform="matrix(.4345 -.9318 -.9318 -.4345 6223.4761 -5052.7427)" gradientUnits="userSpaceOnUse" x1="-8535.5879" x2="-6841.793" xlink:href="#b" y1="2645.4897" y2="2645.4897"/><linearGradient id="i" gradientTransform="matrix(.4345 -.9318 -.9318 -.4345 6223.4761 -5052.7427)" gradientUnits="userSpaceOnUse" x1="-8535.5889" x2="-6841.7925" xlink:href="#b" y1="2593.446" y2="2593.446"/><linearGradient id="j" gradientTransform="matrix(.4345 -.9318 -.9318 -.4345 6223.4761 -5052.7427)" gradientUnits="userSpaceOnUse" x1="-8535.5889" x2="-6841.7925" xlink:href="#b" y1="2599.3242" y2="2599.3242"/><linearGradient id="k" gradientTransform="matrix(.4345 -.9318 -.9318 -.4345 6223.4761 -5052.7427)" gradientUnits="userSpaceOnUse" x1="-7584.0386" x2="-7209.6543" xlink:href="#b" y1="2600.5515" y2="2600.5515"/><linearGradient id="l" gradientTransform="matrix(.4345 -.9318 -.9318 -.4345 6223.4761 -5052.7427)" gradientUnits="userSpaceOnUse" x1="-8640.6592" x2="-6946.8647" xlink:href="#b" y1="2654.2649" y2="2654.2649"/><g transform="matrix(.03124976458 0 0 .01830668275 3.3828185426 1.40604472732)"><path d="m736.1 8.1c-49.64619 33.769857-87.24941 81.703127-125.8 127 24.28488 30.83483 43.2443 132.91942 74.93238 57.65666 18.39136-26.52198 75.26838-93.753812 76.65956-93.097814-26.46004 36.737004-94.84788 106.261424-83.81872 129.755674 56.85668-14.13358 152.09444 4.47372 182.67625-41.12367 11.38279-69.53823-7.27096-158.338637-80.39066-186.0284629-14.68812-4.6207668-31.20989-2.19957578-44.25881 5.8376129z" fill="url(#a)"/><path d="m652.5 539.9c-2.15253.28075-2.15253.28075 0 0z" fill="none"/><path d="m602 706.9c-1.025.19167-1.025.19167 0 0z" fill="none"/><path d="m259.4 1081.4c67.17157-177.44164 140.27892-352.78365 223.8-523.2-42.66154 10.7046-46.32708 88.18338-75.36152 124.5586-71.9075 155.22831-136.23091 313.86875-196.23848 474.0414 23.00029 53.3076 35.00425-70.1152 47.8-75.4z" fill="none"/><g fill="#bd202e"><path d="m570.2 791c-9.43306 1.05247-30.20776 5.73556-8.68161 1.73316z"/><path d="m570.2 791c-9.43306 1.05247-30.20776 5.73556-8.68161 1.73316z" opacity=".35"/><path d="m586.7 709.5c20.57372-3.34187 15.19355-2.87335 0 0z"/><path d="m586.7 709.5c20.57372-3.34187 15.19355-2.87335 0 0z" opacity=".35"/></g><path d="m514 469.2c44.24481-82.72639 91.88079-163.7657 145.5-240.8-18.18501-32.95145-49.71949-130.741513-82.57112-51.19195-60.81871 78.621-116.6911 160.98917-168.82888 245.59195 26.63095 29.65933 35.86409 117.93534 73.81069 107.98675 10.44698-20.6577 21.17931-41.17014 32.08931-61.58675z" fill="url(#c)"/><path d="m221.2 1184.4c-13.69653 63.0289-80.97395 135.3593-12.22753 190.1157 32.63366 18.159-55.42001-81.3443 9.43714-56.3845 75.58771.1933 160.30649-33.3272 191.29039-107.1312-9.13198 38.2145-127.01638 39.4647-46.078 11.8081 47.58657-26.5067 83.34076-70.6845 106.278-119.5081-54.02606 64.9647-142.93646 70.8455-220.14962 65.1248-11.07209-.4579-28.76079.6647-28.55038 15.9752z" fill="url(#e)"/><path d="m245.5 1068.1c68.16207-175.94514 141.87927-349.92668 226.8-518.5-26.92317-30.65532-35.79842-117.46835-74.87919-109.51131-110.10613 183.67137-209.76561 378.64655-249.43384 590.93891 21.61198 32.4495 47.54756 118.7739 67.69245 115.0081 9.7662-26.0446 19.64169-52.0492 29.82058-77.9357z" fill="url(#f)"/><path d="m146.2 1034c-17.93424 26.3091 3.95633 123.8493-32.9926 106.5636-18.202976-23.2214-77.574903-59.159-35.053025-7.8886 21.324883 32.371 85.725175 144.0835 5.829322 127.4995-66.99527-21.5962 4.614675 17.3053 21.665833 31.7106-25.983416 1.8225-121.968336 65.5735-45.5304 32.694 36.580346-20.7949 98.72586-4.1042 55.97173 43.4537-41.042677 119.1441-78.901026 239.3591-115.39086 359.9672 55.184897-47.2889 46.466971-130.2135 78.296557-191.4442 41.465473-127.3984 85.826583-253.8494 132.703443-379.3558-22.56946-40.6496-39.09022-84.7505-65.5-123.2z" fill="url(#g)"/><path d="m482.3 560.2c-97.11747 198.57559-180.53882 403.58317-256.2 611.2 154.17073-5.1781 282.66031-123.0161 339.1674-260.74991 12.14937-33.9782 63.80657-114.71749 34.91401-128.18856-20.85788 10.70216-66.5763 14.62392-20.16128-1.98602 33.85734-23.36403 76.02019-56.2484 81.90876-97.84997-25.82014 19.68392-102.06524 36.4571-34.33851 6.07731 59.65393-40.00563 87.75279-110.68671 104.30962-177.80285-26.43003 18.29898-87.86246 31.53842-46.0677 25.48905-67.74312 8.62203-136.19015 12.48264-203.5323 23.81095z" fill="url(#h)"/><path d="m666.1 230.2c-68.19988 105.22857-127.80748 215.77817-183 328.3 79.94447-14.21928 178.91547 2.04488 236.36296-68.69751 55.62568-67.29585 92.61895-148.44892 124.94641-228.93597 11.17424-29.26174 20.54326-70.06393-24.71909-48.2794-50.92614 7.93945-102.11374 14.58639-153.59028 17.61288z" fill="url(#l)"/><path d="m560.5 792.8c-.83333.125-.83333.125 0 0z" fill="#bd202e"/><path d="m560.5 792.8c-.83333.125-.83333.125 0 0z" fill="#bd202e" opacity=".35"/><path d="m560.5 792.8c-.83333.125-.83333.125 0 0z" fill="url(#i)"/><path d="m586.6 709.6c.25833-.0417.25833-.0417 0 0z" fill="#bd202e"/><path d="m586.6 709.6c.25833-.0417.25833-.0417 0 0z" fill="#bd202e" opacity=".35"/><path d="m586.6 709.6c.25833-.0417.25833-.0417 0 0z" fill="url(#j)"/><path d="m586.6 709.6c.1 0 .1-.1 0 0 .1-.1.1 0 0 0z" fill="#bd202e"/><path d="m586.6 709.6c.1 0 .1-.1 0 0 .1-.1.1 0 0 0z" fill="#bd202e" opacity=".35"/><path d="m586.6 709.6c.1 0 .1-.1 0 0 .1-.1.1 0 0 0z" fill="url(#k)"/></g></svg>